<svg width="24" height="24" viewBox="0 0 24 24" fill="none" xmlns="http://www.w3.org/2000/svg">
<path d="M19.2857 11.3414V11.9985C19.2848 13.5388 18.7861 15.0376 17.8638 16.2712C16.9415 17.5049 15.6452 18.4074 14.1681 18.8441C12.691 19.2809 11.1123 19.2284 9.66748 18.6946C8.22263 18.1608 6.98904 17.1743 6.15069 15.8821C5.31233 14.59 4.91414 13.0614 5.01548 11.5244C5.11683 9.98748 5.71229 8.52445 6.71306 7.35356C7.71382 6.18266 9.06627 5.36664 10.5687 5.02718C12.0711 4.68773 13.643 4.84303 15.05 5.46994" stroke="#11E0AE" stroke-width="2" stroke-linecap="round" stroke-linejoin="round"/>
<path fill-rule="evenodd" clip-rule="evenodd" d="M19.791 5.77878C20.07 6.05759 20.0703 6.50985 19.7915 6.78893L12.6486 13.9389C12.5147 14.073 12.333 14.1483 12.1435 14.1484C11.954 14.1484 11.7722 14.0732 11.6382 13.9392L9.49534 11.7963C9.2164 11.5174 9.2164 11.0651 9.49534 10.7862C9.77429 10.5072 10.2265 10.5072 10.5055 10.7862L12.143 12.4237L18.7808 5.77929C19.0596 5.5002 19.5119 5.49997 19.791 5.77878Z" fill="#11E0AE"/>
</svg>
