<?xml version="1.0" encoding="utf-8"?>
<!-- Generator: Adobe Illustrator 27.3.1, SVG Export Plug-In . SVG Version: 6.00 Build 0)  -->
<svg version="1.1" id="Layer_1" xmlns="http://www.w3.org/2000/svg" xmlns:xlink="http://www.w3.org/1999/xlink" x="0px" y="0px"
	 viewBox="0 0 32 32" style="enable-background:new 0 0 32 32;" xml:space="preserve">
<style type="text/css">
	.st0{display:none;fill:none;stroke:#212529;stroke-width:2;stroke-linecap:round;stroke-linejoin:round;}
	.st1{display:none;}
	.st2{display:inline;fill:none;stroke:#212529;stroke-width:2;stroke-linecap:round;stroke-linejoin:round;}
	.st3{fill:none;stroke:#212529;stroke-width:2;stroke-linecap:round;stroke-linejoin:round;}
</style>
<path class="st0" d="M8,11.2h16 M14.4,15.2v4 M17.6,15.2v4 M9.6,11.2h12.8l-1.26,11.38c-0.04,0.39-0.23,0.75-0.52,1.02
	C20.32,23.85,19.94,24,19.55,24h-7.09c-0.39,0-0.77-0.15-1.07-0.41c-0.29-0.26-0.48-0.62-0.52-1.02L9.6,11.2z M12.28,8.92
	c0.13-0.27,0.33-0.51,0.59-0.67S13.42,8,13.72,8h4.55c0.3,0,0.6,0.09,0.86,0.25c0.26,0.16,0.46,0.39,0.59,0.67l1.08,2.28h-9.6
	L12.28,8.92z"/>
<g class="st1">
	<polygon class="st2" points="8.28,24.99 7.21,24.11 14.64,13.09 18.06,11.54 20.88,13.6 19.92,18.26 	"/>
	<path class="st2" d="M22.16,14.54l-5.02-3.68c-0.78-0.57-0.95-1.67-0.38-2.44l0.81-1.1c0.57-0.78,1.67-0.95,2.44-0.38l5.02,3.68
		c0.78,0.57,0.95,1.67,0.38,2.44l-0.81,1.1C24.04,14.94,22.94,15.11,22.16,14.54z"/>
</g>
<path class="st3" d="M25.84,15.84c-0.39,4.37-3.99,7.92-8.37,8.23c-1.46,0.11-2.85-0.13-4.11-0.64c-0.52-0.21-2.62,0.57-4.08,1.17
	c-0.57,0.23-1.15-0.3-0.96-0.89c0.45-1.45,0.99-3.5,0.63-4.11c-1-1.7-1.46-3.75-1.15-5.92c0.55-3.85,3.6-6.99,7.44-7.63
	C21.23,5.07,26.36,9.93,25.84,15.84z"/>
</svg>
