<svg width="32" height="32" viewBox="0 0 32 32" fill="none" xmlns="http://www.w3.org/2000/svg">
<path d="M8 11.2H24M14.4 15.2V19.2M17.6 15.2V19.2M9.6 11.2H22.4L21.136 22.576C21.0927 22.9675 20.9065 23.3293 20.613 23.592C20.3196 23.8548 19.9395 24 19.5456 24H12.4544C12.0605 24 11.6804 23.8548 11.387 23.592C11.0935 23.3293 10.9073 22.9675 10.864 22.576L9.6 11.2ZM12.276 8.9176C12.4054 8.64317 12.6102 8.4112 12.8664 8.24873C13.1226 8.08626 13.4198 8 13.7232 8H18.2768C18.5803 7.99984 18.8777 8.08604 19.1341 8.24851C19.3905 8.41099 19.5953 8.64305 19.7248 8.9176L20.8 11.2H11.2L12.276 8.9176Z" stroke="#8E959F" stroke-width="2" stroke-linecap="round" stroke-linejoin="round"/>
</svg>
