<svg width="32" height="32" viewBox="0 0 32 32" fill="none" xmlns="http://www.w3.org/2000/svg">
<path d="M14.0271 17.7536C13.9116 17.7045 13.7873 17.6783 13.6617 17.6768H8.85276C8.50905 17.6768 8.19154 17.8601 8.01979 18.1577C7.84804 18.4552 7.84804 18.8219 8.01979 19.1195C8.19154 19.417 8.50906 19.6003 8.85276 19.6003H11.3437L5.28446 25.6498C5.10241 25.8303 5 26.0761 5 26.3327C5 26.5893 5.10241 26.8351 5.28446 27.0156C5.46501 27.1977 5.71082 27.3001 5.96739 27.3001C6.22395 27.3001 6.46975 27.1977 6.65031 27.0156L12.6997 20.9563V23.4473C12.6997 23.791 12.883 24.1085 13.1806 24.2803C13.4782 24.452 13.8448 24.452 14.1424 24.2803C14.4399 24.1085 14.6233 23.791 14.6233 23.4473V18.6383C14.6218 18.5127 14.5956 18.3884 14.5464 18.2729C14.4488 18.0379 14.262 17.8511 14.0269 17.7534L14.0271 17.7536Z" fill="#212529"/>
<path d="M17.3125 14.5448C17.428 14.594 17.5523 14.6202 17.6779 14.6217H22.4868C22.8306 14.6217 23.1481 14.4384 23.3198 14.1408C23.4916 13.8432 23.4916 13.4766 23.3198 13.179C23.1481 12.8815 22.8305 12.6981 22.4868 12.6981H19.9959L26.0551 6.64869C26.299 6.40459 26.3943 6.04908 26.305 5.71586C26.2157 5.38245 25.9555 5.12224 25.6221 5.03293C25.2889 4.94362 24.9334 5.03894 24.6893 5.28283L18.6399 11.3421V8.85114C18.6399 8.50743 18.4566 8.18992 18.159 8.01817C17.8614 7.84642 17.4948 7.84642 17.1972 8.01817C16.8997 8.18992 16.7163 8.50744 16.7163 8.85114V13.6601C16.7178 13.7857 16.744 13.91 16.7932 14.0255C16.8908 14.2606 17.0776 14.4474 17.3127 14.545L17.3125 14.5448Z" fill="#212529"/>
</svg>
