<svg width="24" height="24" viewBox="0 0 24 24" fill="none" xmlns="http://www.w3.org/2000/svg">
<rect x="0.5" y="0.5" width="23" height="23" fill="white"/>
<path fill-rule="evenodd" clip-rule="evenodd" d="M19.1823 3.74316H13.7823C13.451 3.74316 13.1823 4.01179 13.1823 4.34316C13.1823 4.67454 13.451 4.94316 13.7823 4.94316L17.7338 4.94316L13.1012 9.57575L12.677 10L13.5255 10.8485L13.9497 10.4243L18.5823 5.79169V9.74316C18.5823 10.0745 18.851 10.3432 19.1823 10.3432C19.5137 10.3432 19.7823 10.0745 19.7823 9.74316V4.34316C19.7823 4.01179 19.5137 3.74316 19.1823 3.74316ZM5 4.25011H4.25V5.00011V19.0001V19.7501H5H19H19.75V19.0001V12.0001H18.25V18.2501H5.75V5.75011H11.5625V4.25011H5Z" fill="#212529"/>
<rect x="0.5" y="0.5" width="23" height="23" stroke="#E4E8ED"/>
</svg>
