<svg width="26" height="26" viewBox="0 0 26 26" fill="none" xmlns="http://www.w3.org/2000/svg">
<rect x="0.5" y="0.5" width="25" height="25" rx="4.5" fill="white"/>
<path d="M11.925 14.0498C11.8494 14.0176 11.768 14.0005 11.6858 13.9995H8.53733C8.3123 13.9995 8.10442 14.1195 7.99198 14.3144C7.87953 14.5092 7.87953 14.7492 7.99198 14.9441C8.10442 15.1389 8.3123 15.2589 8.53733 15.2589H10.1682L6.20113 19.2195C6.08194 19.3377 6.01489 19.4987 6.01489 19.6666C6.01489 19.8346 6.08194 19.9955 6.20113 20.1137C6.31934 20.2329 6.48028 20.3 6.64825 20.3C6.81622 20.3 6.97715 20.2329 7.09537 20.1137L11.056 16.1467V17.7775C11.056 18.0026 11.176 18.2104 11.3708 18.3229C11.5656 18.4353 11.8057 18.4353 12.0005 18.3229C12.1953 18.2104 12.3153 18.0026 12.3153 17.7775V14.6291C12.3144 14.5468 12.2972 14.4655 12.265 14.3898C12.2011 14.2359 12.0788 14.1136 11.9249 14.0497L11.925 14.0498Z" fill="#212529"/>
<path d="M14.0759 11.949C14.1515 11.9812 14.2329 11.9984 14.3151 11.9994H17.4636C17.6886 11.9994 17.8965 11.8793 18.0089 11.6845C18.1214 11.4897 18.1214 11.2496 18.0089 11.0548C17.8965 10.86 17.6886 10.74 17.4636 10.74H15.8327L19.7998 6.77936C19.9594 6.61955 20.0218 6.38679 19.9634 6.16863C19.9049 5.95035 19.7345 5.77998 19.5163 5.72151C19.2981 5.66304 19.0654 5.72545 18.9055 5.88512L14.9449 9.8522V8.22133C14.9449 7.9963 14.8249 7.78842 14.6301 7.67597C14.4353 7.56353 14.1952 7.56353 14.0004 7.67597C13.8056 7.78842 13.6855 7.9963 13.6855 8.22133V11.3698C13.6865 11.452 13.7037 11.5334 13.7359 11.609C13.7998 11.7629 13.9221 11.8852 14.076 11.9492L14.0759 11.949Z" fill="#212529"/>
<path d="M7.64825 12.3698C7.81523 12.3698 7.97546 12.3034 8.09353 12.1854C8.2116 12.0673 8.27794 11.9071 8.27794 11.7401V7.96191H12.0561C12.2811 7.96191 12.489 7.84187 12.6014 7.64706C12.7139 7.45224 12.7139 7.21217 12.6014 7.01736C12.489 6.82255 12.2811 6.70251 12.0561 6.70251H7.64825C7.48127 6.70251 7.32103 6.76886 7.20296 6.88693C7.0849 7.00499 7.01855 7.16523 7.01855 7.33221V11.7401C7.01855 11.9071 7.0849 12.0673 7.20296 12.1854C7.32103 12.3034 7.48127 12.3698 7.64825 12.3698Z" fill="#212529"/>
<path d="M18.353 13.629C18.186 13.629 18.0257 13.6954 17.9077 13.8134C17.7896 13.9315 17.7233 14.0917 17.7233 14.2587V18.0369H13.9451C13.7201 18.0369 13.5122 18.1569 13.3998 18.3517C13.2873 18.5466 13.2873 18.7866 13.3998 18.9814C13.5122 19.1763 13.7201 19.2963 13.9451 19.2963H18.353C18.5199 19.2963 18.6802 19.2299 18.7982 19.1119C18.9163 18.9938 18.9827 18.8336 18.9827 18.6666V14.2587C18.9827 14.0917 18.9163 13.9315 18.7982 13.8134C18.6802 13.6954 18.5199 13.629 18.353 13.629Z" fill="#212529"/>
<rect x="0.5" y="0.5" width="25" height="25" rx="4.5" stroke="#ADB2B9"/>
</svg>
