<!DOCTYPE svg PUBLIC "-//W3C//DTD SVG 1.1//EN" "http://www.w3.org/Graphics/SVG/1.1/DTD/svg11.dtd">
<!-- Uploaded to: SVG Repo, www.svgrepo.com, Transformed by: SVG Repo Mixer Tools -->
<svg fill="#000000" version="1.1" id="Capa_1" xmlns="http://www.w3.org/2000/svg" xmlns:xlink="http://www.w3.org/1999/xlink" width="800px" height="800px" viewBox="-5.04 -5.04 34.08 34.08" xml:space="preserve">
<g id="SVGRepo_bgCarrier" stroke-width="0"/>
<g id="SVGRepo_tracerCarrier" stroke-linecap="round" stroke-linejoin="round"/>
<g id="SVGRepo_iconCarrier"> <g> <g> <path d="M20,0H4C1.794,0,0,1.794,0,4v16c0,2.206,1.794,4,4,4h16c2.206,0,4-1.794,4-4V4C24,1.794,22.206,0,20,0z M22,20 c0,1.104-0.896,2-2,2H4c-1.103,0-2-0.896-2-2V4c0-1.103,0.897-2,2-2h16c1.104,0,2,0.897,2,2V20z"/> <circle cx="5.896" cy="8" r="1.5"/> <path d="M18.604,7h-8.208c-0.552,0-1,0.448-1,1s0.448,1,1,1h8.208c0.553,0,1-0.448,1-1S19.156,7,18.604,7z"/> <circle cx="5.896" cy="12" r="1.5"/> <path d="M18.604,11h-8.208c-0.552,0-1,0.448-1,1s0.448,1,1,1h8.208c0.553,0,1-0.448,1-1S19.156,11,18.604,11z"/> <circle cx="5.896" cy="16" r="1.5"/> <path d="M18.604,15h-8.208c-0.552,0-1,0.448-1,1s0.448,1,1,1h8.208c0.553,0,1-0.448,1-1S19.156,15,18.604,15z"/> </g> </g> </g>
</svg>