<svg width="32" height="32" viewBox="0 0 32 32" fill="none" xmlns="http://www.w3.org/2000/svg">
<g clip-path="url(#clip0_609_223)">
<path d="M16 7C14.22 7 12.4799 7.52784 10.9999 8.51677C9.51983 9.50571 8.36628 10.9113 7.68509 12.5558C7.0039 14.2004 6.82567 16.01 7.17294 17.7558C7.5202 19.5016 8.37737 21.1053 9.63604 22.364C10.8947 23.6226 12.4984 24.4798 14.2442 24.8271C15.99 25.1743 17.7996 24.9961 19.4442 24.3149C21.0887 23.6337 22.4943 22.4802 23.4832 21.0001C24.4722 19.5201 25 17.78 25 16C25 13.6131 24.0518 11.3239 22.364 9.63604C20.6761 7.94821 18.3869 7 16 7V7ZM14.5 10.8625C14.5 10.5658 14.588 10.2758 14.7528 10.0291C14.9176 9.78247 15.1519 9.59021 15.426 9.47668C15.7001 9.36315 16.0017 9.33344 16.2926 9.39132C16.5836 9.4492 16.8509 9.59206 17.0607 9.80184C17.2704 10.0116 17.4133 10.2789 17.4712 10.5699C17.5291 10.8608 17.4994 11.1624 17.3858 11.4365C17.2723 11.7106 17.08 11.9449 16.8334 12.1097C16.5867 12.2745 16.2967 12.3625 16 12.3625C15.7968 12.3727 15.5937 12.3414 15.4029 12.2706C15.2122 12.1998 15.0378 12.0909 14.8905 11.9506C14.7432 11.8103 14.6259 11.6414 14.5459 11.4544C14.4659 11.2673 14.4247 11.066 14.425 10.8625H14.5ZM19.75 20.5C19.75 20.6989 19.671 20.8897 19.5303 21.0303C19.3897 21.171 19.1989 21.25 19 21.25H13.75C13.5511 21.25 13.3603 21.171 13.2197 21.0303C13.079 20.8897 13 20.6989 13 20.5C13 20.3011 13.079 20.1103 13.2197 19.9697C13.3603 19.829 13.5511 19.75 13.75 19.75H15.25V15.25H14.5C14.3011 15.25 14.1103 15.171 13.9697 15.0303C13.829 14.8897 13.75 14.6989 13.75 14.5C13.75 14.3011 13.829 14.1103 13.9697 13.9697C14.1103 13.829 14.3011 13.75 14.5 13.75H17.5V19.75H19C19.1989 19.75 19.3897 19.829 19.5303 19.9697C19.671 20.1103 19.75 20.3011 19.75 20.5Z" fill="#212529"/>
</g>
<defs>
<clipPath id="clip0_609_223">
<rect width="32" height="32" fill="white"/>
</clipPath>
</defs>
</svg>
