<?xml version="1.0" encoding="UTF-8"?>
<svg id="_레이어_1" data-name=" 레이어 1" xmlns="http://www.w3.org/2000/svg" viewBox="0 0 17.02 18">
  <defs>
    <style>
      .cls-1 {
        isolation: isolate;
      }

      .cls-2 {
        fill: #666;
      }

      .cls-3 {
        fill: #fff;
        stroke: #ccc;
        stroke-miterlimit: 10;
        stroke-width: .5px;
      }
    </style>
  </defs>
  <rect class="cls-3" x="1.01" y="1.5" width="15" height="15" rx="2.13" ry="2.13"/>
  <g class="cls-1">
    <g class="cls-1">
      <path class="cls-2" d="m6.23,9.27c0-2.87,1.29-3.97,2.72-3.97.76,0,1.31.32,1.71.75l-.51.57c-.29-.35-.73-.56-1.17-.56-1.01,0-1.85.77-1.89,3.04.46-.55,1.09-.89,1.67-.89,1.23,0,2.03.74,2.03,2.19,0,1.37-.96,2.29-2.1,2.29-1.41,0-2.46-1.14-2.46-3.42Zm.88.57c.12,1.39.67,2.14,1.57,2.14.71,0,1.25-.63,1.25-1.58s-.44-1.51-1.32-1.51c-.46,0-1.02.25-1.5.95Z"/>
    </g>
  </g>
</svg>