<?xml version="1.0" encoding="UTF-8"?>
<svg id="_레이어_1" data-name=" 레이어 1" xmlns="http://www.w3.org/2000/svg" viewBox="0 0 17.02 18">
  <defs>
    <style>
      .cls-1 {
        isolation: isolate;
      }

      .cls-2 {
        fill: #666;
      }

      .cls-3 {
        fill: #fff;
        stroke: #ccc;
        stroke-miterlimit: 10;
        stroke-width: .5px;
      }
    </style>
  </defs>
  <rect class="cls-3" x="1.01" y="1.5" width="15" height="15" rx="2.13" ry="2.13"/>
  <g class="cls-1">
    <g class="cls-1">
      <path class="cls-2" d="m6.37,11.94l.51-.57c.28.35.72.56,1.17.56,1,0,1.85-.78,1.89-3.06-.46.57-1.09.92-1.67.92-1.24,0-2.04-.75-2.04-2.21,0-1.36.96-2.28,2.1-2.28,1.41,0,2.46,1.14,2.46,3.43,0,2.86-1.29,3.96-2.71,3.96-.76,0-1.32-.32-1.71-.75Zm2.05-2.83c.46,0,1.04-.29,1.5-.97-.12-1.38-.68-2.12-1.59-2.12-.7,0-1.24.62-1.24,1.56s.44,1.53,1.33,1.53Z"/>
    </g>
  </g>
</svg>