<?xml version="1.0" encoding="UTF-8"?>
<svg id="_레이어_1" data-name=" 레이어 1" xmlns="http://www.w3.org/2000/svg" viewBox="0 0 17.02 18">
  <defs>
    <style>
      .cls-1 {
        isolation: isolate;
      }

      .cls-2 {
        fill: #666;
      }

      .cls-3 {
        fill: #fff;
        stroke: #ccc;
        stroke-miterlimit: 10;
        stroke-width: .5px;
      }
    </style>
  </defs>
  <rect class="cls-3" x="1.02" y="1.5" width="15" height="15" rx="2.13" ry="2.13"/>
  <g class="cls-1">
    <g class="cls-1">
      <path class="cls-2" d="m6.14,5.21h.75l.08.62h.03c.49-.4,1.1-.76,1.73-.76,1.4,0,2.16,1.1,2.16,2.77,0,1.86-1.11,2.93-2.36,2.93-.49,0-1.01-.23-1.5-.63l.02.95v1.84h-.91v-7.72Zm3.8,2.64c0-1.2-.4-2.01-1.43-2.01-.46,0-.93.26-1.46.75v2.85c.49.42.97.57,1.33.57.9,0,1.56-.81,1.56-2.16Z"/>
    </g>
  </g>
</svg>