<?xml version="1.0" encoding="UTF-8"?>
<svg id="_레이어_1" data-name=" 레이어 1" xmlns="http://www.w3.org/2000/svg" viewBox="0 0 17.02 18">
  <defs>
    <style>
      .cls-1 {
        isolation: isolate;
      }

      .cls-2 {
        fill: #666;
      }

      .cls-3 {
        fill: #fff;
        stroke: #ccc;
        stroke-miterlimit: 10;
        stroke-width: .5px;
      }
    </style>
  </defs>
  <rect class="cls-3" x="1.01" y="1.5" width="15" height="15" rx="2.13" ry="2.13"/>
  <g class="cls-1">
    <g class="cls-1">
      <path class="cls-2" d="m6.51,11.1l.45-.6c.47.38.96.64,1.61.64.72,0,1.07-.38,1.07-.85,0-.56-.64-.8-1.24-1.03-.76-.28-1.59-.65-1.59-1.57,0-.86.7-1.54,1.88-1.54.67,0,1.26.28,1.68.61l-.44.59c-.37-.28-.75-.48-1.23-.48-.69,0-1.01.36-1.01.78,0,.52.56.71,1.17.94.79.3,1.66.62,1.66,1.65,0,.88-.7,1.61-1.98,1.61-.77,0-1.51-.32-2.03-.75Z"/>
    </g>
  </g>
</svg>