<?xml version="1.0" encoding="UTF-8"?>
<svg id="_레이어_1" data-name=" 레이어 1" xmlns="http://www.w3.org/2000/svg" viewBox="0 0 17.02 18">
  <defs>
    <style>
      .cls-1 {
        isolation: isolate;
      }

      .cls-2 {
        fill: #666;
      }

      .cls-3 {
        fill: #fff;
        stroke: #ccc;
        stroke-miterlimit: 10;
        stroke-width: .5px;
      }
    </style>
  </defs>
  <rect class="cls-3" x="1.01" y="1.5" width="15" height="15" rx="2.13" ry="2.13"/>
  <g class="cls-1">
    <g class="cls-1">
      <path class="cls-2" d="m6.19,10.74c0-.93.68-1.57,1.35-1.93v-.04c-.53-.36-.99-.89-.99-1.65,0-1.09.87-1.82,2.01-1.82,1.25,0,2.01.78,2.01,1.89,0,.75-.55,1.39-.98,1.72v.05c.63.38,1.24.88,1.24,1.83,0,1.07-.92,1.9-2.3,1.9s-2.34-.82-2.34-1.95Zm3.77.03c0-.93-.9-1.26-1.94-1.67-.58.37-1,.9-1,1.56,0,.78.65,1.35,1.53,1.35s1.41-.51,1.41-1.24Zm-.17-3.53c0-.7-.45-1.26-1.24-1.26-.68,0-1.17.45-1.17,1.14,0,.86.79,1.22,1.65,1.56.49-.44.76-.91.76-1.44Z"/>
    </g>
  </g>
</svg>