<?xml version="1.0" encoding="UTF-8"?>
<svg id="_레이어_1" data-name=" 레이어 1" xmlns="http://www.w3.org/2000/svg" viewBox="0 0 17.02 18">
  <defs>
    <style>
      .cls-1 {
        isolation: isolate;
      }

      .cls-2 {
        fill: #666;
      }

      .cls-3 {
        fill: #fff;
        stroke: #ccc;
        stroke-miterlimit: 10;
        stroke-width: .5px;
      }
    </style>
  </defs>
  <rect class="cls-3" x="1.01" y="1.5" width="15" height="15" rx="2.13" ry="2.13"/>
  <g class="cls-1">
    <g class="cls-1">
      <path class="cls-2" d="m6.02,11.57c0-.46.29-.9.8-1.23v-.04c-.29-.17-.5-.46-.5-.89s.33-.81.61-1.01v-.04c-.36-.29-.71-.81-.71-1.46,0-1.19.94-1.94,2.04-1.94.3,0,.57.07.76.14h1.89v.7h-1.11c.26.25.44.65.44,1.12,0,1.16-.88,1.89-1.98,1.89-.27,0-.57-.07-.81-.19-.2.17-.35.35-.35.65,0,.35.22.59.95.59h1.06c1.26,0,1.9.4,1.9,1.29,0,1.01-1.07,1.88-2.75,1.88-1.33,0-2.24-.52-2.24-1.46Zm4.1-.28c0-.5-.39-.67-1.11-.67h-.94c-.2,0-.46-.03-.7-.09-.39.28-.55.6-.55.92,0,.58.59.96,1.57.96,1.04,0,1.73-.55,1.73-1.12Zm-.7-4.39c0-.79-.52-1.27-1.16-1.27s-1.16.47-1.16,1.27.53,1.29,1.16,1.29,1.16-.5,1.16-1.29Z"/>
    </g>
  </g>
</svg>