<?xml version="1.0" encoding="UTF-8"?>
<svg id="_레이어_1" data-name=" 레이어 1" xmlns="http://www.w3.org/2000/svg" viewBox="0 0 17.02 18">
  <defs>
    <style>
      .cls-1 {
        isolation: isolate;
      }

      .cls-2 {
        fill: #666;
      }

      .cls-3 {
        fill: #fff;
        stroke: #ccc;
        stroke-miterlimit: 10;
        stroke-width: .5px;
      }
    </style>
  </defs>
  <rect class="cls-3" x="1.01" y="1.5" width="15" height="15" rx="2.13" ry="2.13"/>
  <g class="cls-1">
    <g class="cls-1">
      <path class="cls-2" d="m6.16,11.69l.46-.6c.43.45.99.84,1.82.84.87,0,1.49-.51,1.49-1.31,0-.85-.59-1.41-2.28-1.41v-.7c1.51,0,2.03-.59,2.03-1.34,0-.69-.48-1.13-1.24-1.13-.59,0-1.11.3-1.52.72l-.49-.57c.55-.52,1.2-.89,2.05-.89,1.23,0,2.13.65,2.13,1.81,0,.86-.53,1.41-1.3,1.69v.04c.86.21,1.55.84,1.55,1.82,0,1.27-1.05,2.03-2.35,2.03-1.15,0-1.87-.48-2.35-1Z"/>
    </g>
  </g>
</svg>