<?xml version="1.0" encoding="UTF-8"?>
<svg id="_레이어_1" data-name=" 레이어 1" xmlns="http://www.w3.org/2000/svg" viewBox="0 0 17.02 18">
  <defs>
    <style>
      .cls-1 {
        isolation: isolate;
      }

      .cls-2 {
        fill: #666;
      }

      .cls-3 {
        fill: #fff;
        stroke: #ccc;
        stroke-miterlimit: 10;
        stroke-width: .5px;
      }
    </style>
  </defs>
  <rect class="cls-3" x="1.02" y="1.5" width="15" height="15" rx="2.13" ry="2.13"/>
  <g class="cls-1">
    <g class="cls-1">
      <path class="cls-2" d="m4.78,6.29h.93l.81,3.14c.11.52.22,1.01.32,1.52h.05c.12-.51.23-1.01.37-1.52l.84-3.14h.89l.85,3.14c.13.52.25,1.01.38,1.52h.04c.12-.51.22-1,.34-1.52l.8-3.14h.86l-1.46,5.43h-1.1l-.79-2.93c-.14-.51-.24-1.01-.37-1.56h-.05c-.12.55-.23,1.06-.37,1.58l-.76,2.91h-1.07l-1.51-5.43Z"/>
    </g>
  </g>
</svg>