<?xml version="1.0" encoding="UTF-8"?>
<svg id="_레이어_1" data-name=" 레이어 1" xmlns="http://www.w3.org/2000/svg" viewBox="0 0 17.02 18">
  <defs>
    <style>
      .cls-1 {
        isolation: isolate;
      }

      .cls-2 {
        fill: #666;
      }

      .cls-3 {
        fill: #fff;
        stroke: #ccc;
        stroke-miterlimit: 10;
        stroke-width: .5px;
      }
    </style>
  </defs>
  <rect class="cls-3" x="1.01" y="1.5" width="15" height="15" rx="2.13" ry="2.13"/>
  <g class="cls-1">
    <g class="cls-1">
      <path class="cls-2" d="m4.77,6.36h.75l.08.79h.03c.47-.52,1.04-.93,1.69-.93.83,0,1.28.4,1.5,1.04.56-.61,1.13-1.04,1.79-1.04,1.12,0,1.65.74,1.65,2.13v3.44h-.91v-3.32c0-1.02-.32-1.45-1.01-1.45-.42,0-.86.27-1.37.83v3.94h-.91v-3.32c0-1.02-.32-1.45-1.01-1.45-.41,0-.87.27-1.37.83v3.94h-.91v-5.43Z"/>
    </g>
  </g>
</svg>