<svg width="32" height="32" viewBox="0 0 32 32" fill="none" xmlns="http://www.w3.org/2000/svg">
<g clip-path="url(#clip0_540_144)">
<rect width="32" height="32" rx="4" fill="#212529"/>
<path d="M24 9.08128H13.2375V7.56382C13.2375 7.04082 12.8675 6.84632 12.415 7.13132L7.34502 10.9073C6.89252 11.1923 6.88402 11.6708 7.32602 11.9708L12.4335 15.9694C12.8755 16.2704 13.237 16.0869 13.237 15.5639V14.0813H24C24.2652 14.0813 24.5196 13.9759 24.7071 13.7884C24.8947 13.6009 25 13.3465 25 13.0813V10.0813C25 9.81607 24.8947 9.56171 24.7071 9.37418C24.5196 9.18664 24.2652 9.08128 24 9.08128Z" fill="white"/>
<path d="M10.1641 24.9061V18.6213H11.4535V24.9061H10.1641Z" fill="white"/>
<path d="M12.5073 24.9061V20.5768H13.7967V24.9061H12.5073ZM12.4561 19.868V18.664H13.8394V19.868H12.4561Z" fill="white"/>
<path d="M16.4474 25C16.0603 25 15.7073 24.9573 15.3885 24.8719C15.0697 24.7866 14.7993 24.667 14.5773 24.5133L14.9103 23.6594C15.1323 23.796 15.3771 23.9042 15.6447 23.9839C15.9179 24.0636 16.1883 24.1034 16.4559 24.1034C16.7064 24.1034 16.8914 24.0636 17.0109 23.9839C17.1305 23.9042 17.1903 23.796 17.1903 23.6594C17.1903 23.5455 17.1504 23.4573 17.0707 23.3947C16.9967 23.3321 16.88 23.2865 16.7206 23.2581L15.8411 23.0958C15.4711 23.0218 15.1893 22.8852 14.9957 22.6859C14.8022 22.4867 14.7054 22.2277 14.7054 21.9089C14.7054 21.6299 14.7794 21.3852 14.9274 21.1745C15.0811 20.9582 15.3003 20.7903 15.5849 20.6707C15.8695 20.5512 16.2026 20.4914 16.584 20.4914C16.9085 20.4914 17.2159 20.5312 17.5062 20.6109C17.7965 20.6906 18.0442 20.813 18.2491 20.9781L17.899 21.8064C17.7225 21.6755 17.5176 21.5702 17.2842 21.4905C17.0565 21.4108 16.8373 21.3709 16.6267 21.3709C16.3534 21.3709 16.157 21.4165 16.0375 21.5075C15.9179 21.5929 15.8582 21.7039 15.8582 21.8406C15.8582 21.943 15.8923 22.0284 15.9606 22.0967C16.0346 22.1651 16.1456 22.2163 16.2937 22.2504L17.1817 22.4127C17.5631 22.481 17.8535 22.6091 18.0527 22.7969C18.2519 22.9848 18.3516 23.2438 18.3516 23.574C18.3516 23.8757 18.2719 24.1319 18.1125 24.3425C17.9531 24.5532 17.7282 24.7154 17.4379 24.8292C17.1533 24.9431 16.8231 25 16.4474 25Z" fill="white"/>
<path d="M21.1355 25C20.5719 25 20.1478 24.8606 19.8632 24.5816C19.5786 24.297 19.4362 23.8729 19.4362 23.3093V21.5417H18.6165V20.5768H19.4362V19.5179L20.7256 19.202V20.5768H21.8357V21.5417H20.7256V23.241C20.7256 23.5142 20.7826 23.7021 20.8964 23.8046C21.0103 23.907 21.1554 23.9583 21.3319 23.9583C21.4401 23.9583 21.5283 23.9526 21.5966 23.9412C21.6706 23.9241 21.7475 23.9013 21.8272 23.8729V24.8719C21.719 24.9175 21.6052 24.9488 21.4856 24.9659C21.3661 24.9886 21.2494 25 21.1355 25Z" fill="white"/>
</g>
<defs>
<clipPath id="clip0_540_144">
<rect width="32" height="32" rx="4" fill="white"/>
</clipPath>
</defs>
</svg>
