<?xml version="1.0" encoding="UTF-8"?>
<svg id="_레이어_1" data-name="레이어 1" xmlns="http://www.w3.org/2000/svg" viewBox="0 0 17.02 18">
  <defs>
    <style>
      .cls-1 {
        fill: #fff;
      }

      .cls-1, .cls-2 {
        stroke-miterlimit: 10;
      }

      .cls-1, .cls-2, .cls-3 {
        stroke: #666;
        stroke-width: .5px;
      }

      .cls-2, .cls-3 {
        fill: none;
      }

      .cls-3 {
        stroke-linecap: round;
        stroke-linejoin: round;
      }

      .cls-4 {
        fill: #666;
      }

      .cls-5 {
        fill: #ff0;
      }
    </style>
  </defs>
  <g>
    <polygon class="cls-5" points="8.79 6.97 8.79 5.14 7.69 5.14 6.23 5.87 5.85 6.46 5.2 7.38 5.2 8.34 6.39 8.24 7.92 8.23 8.2 8.23 8.79 6.97"/>
    <path class="cls-2" d="m8.31,5.08h1.07c1.74,0,3.14,1.41,3.14,3.14v3.52c0,2.03-1.65,3.68-3.68,3.68h0c-2.03,0-3.68-1.65-3.68-3.68v-3.52c0-1.74,1.41-3.14,3.14-3.14Z"/>
    <line class="cls-2" x1="5.2" y1="8.23" x2="12.51" y2="8.23"/>
    <rect class="cls-1" x="8.2" y="7.09" width="1.31" height="2.3" rx=".65" ry=".65"/>
  </g>
  <path class="cls-3" d="m8.85,5.08v1.88"/>
  <path class="cls-4" d="m11.81,2.61c-.04-.13-.17-.21-.31-.18-.13.04-.21.17-.18.31l.15.53c-.58-.57-1.51-.94-2.56-.99-1.08-.05-2.06.27-2.68.81l.07-.37c.03-.14-.06-.27-.2-.29-.14-.02-.27.06-.29.2l-.21,1.07c-.01.07,0,.14.05.2.04.06.11.09.18.1l1.06.1s.04,0,.05,0c.11-.01.21-.1.22-.22.01-.14-.09-.26-.22-.27l-.48-.05c.49-.51,1.43-.81,2.43-.77.91.04,1.72.35,2.21.82l-.34.06c-.14.02-.23.15-.2.29.02.12.12.2.24.21.02,0,.04,0,.05,0l1.05-.19c.07-.01.13-.05.17-.11.04-.06.05-.13.03-.2l-.29-1.05Z"/>
</svg>