<?xml version="1.0" encoding="UTF-8"?>
<svg id="_레이어_1" data-name="레이어 1" xmlns="http://www.w3.org/2000/svg" viewBox="0 0 32 32">
  <defs>
    <style>
      .cls-1 {
        fill: #212529;
      }

      .cls-2 {
        fill: none;
        stroke: #212529;
        stroke-linecap: round;
        stroke-linejoin: round;
        stroke-width: 1.2px;
      }
    </style>
  </defs>
  <g>
    <polygon class="cls-2" points="12.3 16.5 12.3 22.7 18.9 22.7 21 19.4 19.5 15.9 15.9 14.6 12.3 16.5"/>
    <circle class="cls-1" cx="15.9" cy="14.6" r="1.2"/>
    <circle class="cls-1" cx="19.4" cy="16" r="1.2"/>
    <circle class="cls-1" cx="21" cy="19.4" r="1.2"/>
    <circle class="cls-1" cx="18.7" cy="22.5" r="1.2"/>
    <circle class="cls-1" cx="12.3" cy="22.5" r="1.2"/>
    <circle class="cls-1" cx="12.3" cy="16.5" r="1.2"/>
  </g>
  <g>
    <path class="cls-1" d="m23.5,4.3h-14.6c-1.32,0-2.4,1.08-2.4,2.4v18.7c0,1.32,1.08,2.4,2.4,2.4h14.6c1.3,0,2.4-1.05,2.4-2.3V6.7c0-1.32-1.08-2.4-2.4-2.4Zm-14.6,1.2h14.6c.67,0,1.2.53,1.2,1.2v3H7.7v-3c0-.67.53-1.2,1.2-1.2Zm14.6,21.1h-14.6c-.67,0-1.2-.53-1.2-1.2v-14.5h17v14.6c0,.59-.56,1.1-1.2,1.1Z"/>
    <path class="cls-1" d="m21.14,8.69c.08.09.19.14.3.14.09,0,.19-.03.26-.1l.65-.57.65.57c.08.07.17.1.26.1.11,0,.22-.05.3-.14.15-.17.13-.42-.04-.56l-.58-.51.58-.51c.17-.15.18-.4.04-.56-.15-.17-.4-.18-.56-.04l-.65.57-.65-.57c-.17-.15-.42-.13-.56.04-.15.17-.13.42.04.56l.58.51-.58.51c-.17.15-.18.4-.04.56Z"/>
  </g>
</svg>