<svg width="32" height="32" viewBox="0 0 32 32" fill="none" xmlns="http://www.w3.org/2000/svg">
<path d="M25.4684 16.0678L20.6976 11.297C20.4884 11.0909 20.2065 10.9753 19.9129 10.9753C19.6192 10.9753 19.3373 11.0909 19.1281 11.297L17.3851 13.04L13.3504 14.5539C13.1687 14.6221 13.0082 14.737 12.8851 14.8869C12.762 15.0369 12.6805 15.2167 12.649 15.4081L11.0309 25.0956C11.0165 25.1753 11.02 25.2573 11.0411 25.3355C11.0621 25.4137 11.1003 25.4863 11.1527 25.5481C11.2052 25.6098 11.2706 25.6592 11.3444 25.6926C11.4182 25.726 11.4985 25.7427 11.5795 25.7414H11.6698L21.3573 24.1303C21.5488 24.0962 21.7281 24.0129 21.8778 23.8888C22.0275 23.7647 22.1425 23.6038 22.2115 23.422L23.7254 19.3873L25.4684 17.6373C25.6745 17.4281 25.7901 17.1462 25.7901 16.8525C25.7901 16.5589 25.6745 16.277 25.4684 16.0678V16.0678ZM21.1698 23.0262L13.1976 24.3525L16.4892 21.0609C16.7717 21.2176 17.0898 21.2989 17.4129 21.297C17.7974 21.297 18.1734 21.183 18.4931 20.9693C18.8129 20.7556 19.0621 20.452 19.2093 20.0967C19.3565 19.7414 19.395 19.3504 19.3199 18.9732C19.2449 18.596 19.0597 18.2496 18.7878 17.9776C18.5159 17.7057 18.1694 17.5205 17.7922 17.4455C17.415 17.3704 17.0241 17.4089 16.6688 17.5561C16.3134 17.7033 16.0098 17.9525 15.7961 18.2723C15.5825 18.592 15.4684 18.968 15.4684 19.3525C15.4665 19.6756 15.5479 19.9937 15.7045 20.2762L12.4129 23.5678L13.7392 15.5956L17.5517 14.165L22.6004 19.2137L21.1698 23.0262ZM16.5795 19.3525C16.5795 19.1877 16.6284 19.0266 16.72 18.8896C16.8115 18.7525 16.9417 18.6457 17.094 18.5827C17.2462 18.5196 17.4138 18.5031 17.5754 18.5352C17.7371 18.5674 17.8856 18.6468 18.0021 18.7633C18.1187 18.8798 18.198 19.0283 18.2302 19.19C18.2623 19.3516 18.2458 19.5192 18.1828 19.6715C18.1197 19.8237 18.0129 19.9539 17.8758 20.0454C17.7388 20.137 17.5777 20.1859 17.4129 20.1859C17.1918 20.1859 16.9799 20.0981 16.8236 19.9418C16.6673 19.7855 16.5795 19.5736 16.5795 19.3525ZM23.2462 18.29L18.4754 13.5192L19.9129 12.0817L24.6837 16.8525L23.2462 18.29Z" fill="#212529"/>
<path d="M14 10.9753C14 11.344 13.968 11.642 13.5993 11.642H10.6667C10.1211 11.642 10.3379 11.642 9.96919 11.642C9.60053 11.642 9.85547 11.642 9.33333 11.642H6.40067C6.03267 11.642 6 11.344 6 10.9753C6 10.6067 6.03267 10.3087 6.40067 10.3087H9.33333C10 10.3087 9.63133 10.3088 10 10.3088C10.3687 10.3088 10.1562 10.3086 10.6667 10.3087H13.5993C13.968 10.3087 14 10.6067 14 10.9753Z" fill="#212529"/>
</svg>
