<svg width="32" height="32" viewBox="0 0 32 32" fill="none" xmlns="http://www.w3.org/2000/svg">
<path fill-rule="evenodd" clip-rule="evenodd" d="M8.39645 8.39639C8.63294 8.1599 8.98873 8.08939 9.29754 8.21782L23.3369 14.0566C23.6539 14.1884 23.8563 14.5025 23.8452 14.8456C23.8342 15.1887 23.6121 15.4892 23.2873 15.6004L17.5435 17.5666L15.6011 23.2853C15.4906 23.6107 15.1901 23.8337 14.8467 23.8451C14.5032 23.8566 14.1886 23.6542 14.0566 23.3369L8.21788 9.29747C8.08945 8.98866 8.15996 8.63288 8.39645 8.39639ZM10.5116 10.5116L14.7411 20.6815L16.1101 16.6511C16.1924 16.4088 16.3824 16.2183 16.6246 16.1354L20.6889 14.7441L10.5116 10.5116Z" fill="#212529"/>
</svg>
