<svg width="32" height="32" viewBox="0 0 32 32" fill="none" xmlns="http://www.w3.org/2000/svg">
<path d="M14.5005 7C14.1027 7 13.7211 7.15804 13.4398 7.43936C13.1585 7.72067 13.0004 8.10222 13.0004 8.50006V8.54732L9.20291 10.9377C8.98747 10.8187 8.74617 10.7543 8.50011 10.7502C8.10225 10.7502 7.7207 10.9082 7.43937 11.1895C7.15805 11.4708 7 11.8524 7 12.2502C7 12.8037 7.30152 13.2785 7.75005 13.5395V22.2106C7.30152 22.4716 7 22.9457 7 23.4999C7 23.8978 7.15805 24.2793 7.43937 24.5606C7.7207 24.842 8.10225 25 8.50011 25C9.05365 25 9.52843 24.6985 9.78945 24.25H19.2109C19.4719 24.6985 19.9459 25 20.5002 25C20.8981 25 21.2796 24.842 21.5609 24.5606C21.8423 24.2793 22.0003 23.8978 22.0003 23.4999C22.0003 23.2014 21.9178 22.9142 21.7655 22.6794L23.5949 19.0005C23.9596 18.9765 24.303 18.8205 24.561 18.5618C24.8191 18.303 24.9741 17.9592 24.997 17.5945C25.02 17.2298 24.9094 16.8692 24.6859 16.5801C24.4623 16.291 24.1412 16.0932 23.7824 16.0236L22.3528 11.7349C22.5899 11.4679 22.7511 11.1334 22.7511 10.7502C22.7511 10.3523 22.5931 9.97077 22.3117 9.68945C22.0304 9.40814 21.6489 9.25009 21.251 9.25009C20.867 9.25009 20.5332 9.41135 20.2662 9.64836L15.9781 8.19555C15.9062 7.85707 15.7202 7.55359 15.4512 7.33593C15.1822 7.11827 14.8466 6.99967 14.5005 7V7ZM15.4854 9.62511L19.7742 11.0314C19.8889 11.6352 20.3667 12.1122 20.9697 12.227L22.3993 16.4924C22.145 16.7666 22.0028 17.1264 22.0011 17.5004C22.0011 17.811 22.0978 18.1042 22.2591 18.3442L20.4072 22.0006C20.1615 22.0172 19.9237 22.0944 19.715 22.2252C19.5064 22.3561 19.3335 22.5366 19.2116 22.7507H9.7902C9.66021 22.5269 9.47406 22.3411 9.25016 22.2114V13.5403C9.69869 13.2793 10.0002 12.8052 10.0002 12.251V12.2037L13.7977 9.81337C14.0077 9.92437 14.2455 10.0009 14.5005 10.0009C14.8786 10.0009 15.2206 9.85762 15.4854 9.62586V9.62511Z" fill="#212529"/>
</svg>
