<svg width="32" height="32" viewBox="0 0 32 32" fill="none" xmlns="http://www.w3.org/2000/svg">
<path d="M25.7406 15.9316L20.9698 11.1608C20.7606 10.9546 20.4787 10.8391 20.1851 10.8391C19.8914 10.8391 19.6095 10.9546 19.4004 11.1608L17.6573 12.9038L13.6226 14.4177C13.4409 14.4859 13.2804 14.6008 13.1573 14.7507C13.0342 14.9007 12.9527 15.0804 12.9212 15.2719L11.3031 24.9594C11.2888 25.0391 11.2922 25.121 11.3133 25.1993C11.3343 25.2775 11.3725 25.3501 11.4249 25.4118C11.4774 25.4736 11.5429 25.523 11.6167 25.5564C11.6904 25.5898 11.7707 25.6065 11.8517 25.6052H11.942L21.6295 23.9941C21.821 23.9599 22.0003 23.8767 22.15 23.7526C22.2997 23.6284 22.4147 23.4676 22.4837 23.2858L23.9976 19.251L25.7406 17.501C25.9467 17.2919 26.0623 17.01 26.0623 16.7163C26.0623 16.4227 25.9467 16.1408 25.7406 15.9316V15.9316ZM21.442 22.8899L13.4698 24.2163L16.7615 20.9247C17.044 21.0813 17.362 21.1626 17.6851 21.1608C18.0696 21.1608 18.4456 21.0467 18.7653 20.8331C19.0851 20.6194 19.3343 20.3157 19.4815 19.9604C19.6287 19.6051 19.6672 19.2142 19.5922 18.837C19.5171 18.4598 19.3319 18.1133 19.06 17.8414C18.7881 17.5695 18.4416 17.3843 18.0644 17.3092C17.6872 17.2342 17.2963 17.2727 16.941 17.4199C16.5857 17.5671 16.282 17.8163 16.0683 18.136C15.8547 18.4558 15.7406 18.8317 15.7406 19.2163C15.7388 19.5394 15.8201 19.8574 15.9767 20.1399L12.6851 23.4316L14.0115 15.4594L17.824 14.0288L22.8726 19.0774L21.442 22.8899ZM16.8517 19.2163C16.8517 19.0515 16.9006 18.8904 16.9922 18.7533C17.0838 18.6163 17.2139 18.5095 17.3662 18.4464C17.5184 18.3833 17.686 18.3668 17.8476 18.399C18.0093 18.4312 18.1578 18.5105 18.2743 18.6271C18.3909 18.7436 18.4702 18.8921 18.5024 19.0537C18.5345 19.2154 18.518 19.3829 18.455 19.5352C18.3919 19.6875 18.2851 19.8176 18.148 19.9092C18.011 20.0008 17.8499 20.0497 17.6851 20.0497C17.4641 20.0497 17.2521 19.9619 17.0958 19.8056C16.9395 19.6493 16.8517 19.4373 16.8517 19.2163ZM23.5184 18.1538L18.7476 13.383L20.1851 11.9455L24.9559 16.7163L23.5184 18.1538Z" fill="#212529"/>
<path d="M14.8266 10.8392C14.8266 11.2488 14.7911 11.5799 14.3814 11.5799H11.1229V14.8384C11.1229 15.2473 10.7918 15.2836 10.3822 15.2836C9.97256 15.2836 9.64145 15.2473 9.64145 14.8384V11.5799H6.38293C5.97404 11.5799 5.93774 11.2488 5.93774 10.8392C5.93774 10.4295 5.97404 10.0984 6.38293 10.0984H9.64145V6.8399C9.64145 6.43027 9.97256 6.39471 10.3822 6.39471C10.7918 6.39471 11.1229 6.43027 11.1229 6.8399V10.0984H14.3814C14.7911 10.0984 14.8266 10.4295 14.8266 10.8392Z" fill="#212529"/>
</svg>
