<svg width="24" height="24" viewBox="0 0 24 24" fill="none" xmlns="http://www.w3.org/2000/svg">
<path fill-rule="evenodd" clip-rule="evenodd" d="M4 4C2.89543 4 2 4.89543 2 6V18C2 19.1046 2.89543 20 4 20H20C21.1046 20 22 19.1046 22 18V6C22 4.89543 21.1046 4 20 4H4ZM12.0152 13.7833C12.7838 13.7833 13.4068 13.1603 13.4068 12.3917C13.4068 11.6231 12.7838 11 12.0152 11C11.2466 11 10.6235 11.6231 10.6235 12.3917C10.6235 13.1603 11.2466 13.7833 12.0152 13.7833ZM18.4068 12.3917C18.4068 13.1603 17.7838 13.7833 17.0152 13.7833C16.2466 13.7833 15.6235 13.1603 15.6235 12.3917C15.6235 11.6231 16.2466 11 17.0152 11C17.7838 11 18.4068 11.6231 18.4068 12.3917ZM7.01518 13.7833C7.78378 13.7833 8.40685 13.1603 8.40685 12.3917C8.40685 11.6231 7.78378 11 7.01518 11C6.24659 11 5.62352 11.6231 5.62352 12.3917C5.62352 13.1603 6.24659 13.7833 7.01518 13.7833Z" fill="white"/>
</svg>
