<svg width="32" height="32" viewBox="0 0 32 32" fill="none" xmlns="http://www.w3.org/2000/svg">
<path d="M25.4687 16.0678L20.6978 11.297C20.4886 11.0909 20.2068 10.9753 19.9131 10.9753C19.6194 10.9753 19.3376 11.0909 19.1284 11.297L17.3853 13.04L13.3506 14.5539C13.1689 14.6221 13.0085 14.737 12.8853 14.8869C12.7622 15.0369 12.6808 15.2167 12.6492 15.4081L11.0312 25.0956C11.0168 25.1753 11.0203 25.2573 11.0413 25.3355C11.0624 25.4137 11.1005 25.4863 11.153 25.5481C11.2054 25.6098 11.2709 25.6592 11.3447 25.6926C11.4185 25.726 11.4988 25.7427 11.5798 25.7414H11.67L21.3575 24.1303C21.549 24.0962 21.7283 24.0129 21.878 23.8888C22.0277 23.7647 22.1427 23.6038 22.2117 23.422L23.7256 19.3873L25.4687 17.6373C25.6748 17.4281 25.7903 17.1462 25.7903 16.8525C25.7903 16.5589 25.6748 16.277 25.4687 16.0678V16.0678ZM21.17 23.0262L13.1978 24.3525L16.4895 21.0609C16.772 21.2176 17.0901 21.2989 17.4131 21.297C17.7977 21.297 18.1736 21.183 18.4934 20.9693C18.8131 20.7556 19.0624 20.452 19.2095 20.0967C19.3567 19.7414 19.3952 19.3504 19.3202 18.9732C19.2452 18.596 19.06 18.2496 18.788 17.9776C18.5161 17.7057 18.1696 17.5205 17.7924 17.4455C17.4153 17.3704 17.0243 17.4089 16.669 17.5561C16.3137 17.7033 16.01 17.9525 15.7964 18.2723C15.5827 18.592 15.4687 18.968 15.4687 19.3525C15.4668 19.6756 15.5481 19.9937 15.7048 20.2762L12.4131 23.5678L13.7395 15.5956L17.552 14.165L22.6006 19.2137L21.17 23.0262ZM16.5798 19.3525C16.5798 19.1877 16.6286 19.0266 16.7202 18.8896C16.8118 18.7525 16.9419 18.6457 17.0942 18.5827C17.2465 18.5196 17.414 18.5031 17.5757 18.5352C17.7373 18.5674 17.8858 18.6468 18.0024 18.7633C18.1189 18.8798 18.1983 19.0283 18.2304 19.19C18.2626 19.3516 18.2461 19.5192 18.183 19.6715C18.1199 19.8237 18.0131 19.9539 17.8761 20.0454C17.739 20.137 17.5779 20.1859 17.4131 20.1859C17.1921 20.1859 16.9801 20.0981 16.8238 19.9418C16.6676 19.7855 16.5798 19.5736 16.5798 19.3525ZM23.2464 18.29L18.4756 13.5192L19.9131 12.0817L24.6839 16.8525L23.2464 18.29Z" fill="#212529"/>
<path d="M14 10.9754C14 11.3441 13.968 11.6421 13.5993 11.6421H10.6667C10.1211 11.6421 10.3379 11.6421 9.96919 11.6421C9.60053 11.6421 9.85547 11.6421 9.33333 11.6421H6.40067C6.03267 11.6421 6 11.3441 6 10.9754C6 10.6067 6.03267 10.3087 6.40067 10.3087H9.33333C10 10.3087 9.63133 10.3088 10 10.3088C10.3687 10.3088 10.1562 10.3086 10.6667 10.3087H13.5993C13.968 10.3087 14 10.6067 14 10.9754Z" fill="#212529"/>
</svg>
