<svg xmlns="http://www.w3.org/2000/svg" width="150" height="150" viewBox="0 0 150 150" fill="none">
<path d="M118.125 75.9375C118.125 99.7539 98.8164 119.062 75 119.062C51.1836 119.062 31.875 99.7539 31.875 75.9375C31.875 52.1211 51.1836 32.8125 75 32.8125C98.8164 32.8125 118.125 52.1211 118.125 75.9375Z M57.1875 62.8125C57.1875 60.4688 58.125 58.125 59.5312 55.7812C60.9375 53.4375 63.2812 51.5625 66.0938 50.1562C68.9062 48.75 72.1875 47.8125 75.9375 47.8125C79.2188 47.8125 82.5 48.2812 85.3125 49.6875C88.125 51.0938 90 52.5 91.4062 54.8438C92.8125 57.1875 93.75 59.5312 93.75 61.875C93.75 63.75 93.2812 65.625 92.3438 67.0312C91.4062 68.4375 90.4688 69.8438 89.5312 70.7812C88.5938 71.7188 86.25 73.5938 83.4375 76.4062C82.5 77.3438 82.0312 77.8125 81.5625 78.2812C80.1562 79.6875 79.6875 80.1562 79.6875 80.625C79.2188 81.0938 79.2188 81.5625 79.2188 82.0312C79.2188 82.5 78.75 83.4375 78.75 84.375C78.2812 86.7188 76.875 88.125 74.5312 88.125C73.125 88.125 72.1875 87.6562 71.25 86.7188C70.3125 85.7812 69.8438 84.8438 69.8438 82.9688C69.8438 81.0938 70.3125 79.2188 70.7812 77.8125C71.25 76.4062 72.1875 75 73.125 74.0625C74.0625 73.125 75.4688 71.7188 77.3438 70.3125C78.75 68.9062 80.1562 67.9688 80.625 67.5C81.0938 67.0312 82.0312 66.0938 82.5 65.1562C82.9688 64.2188 82.9688 63.2812 82.9688 62.3438C82.9688 60.4688 82.0312 59.0625 80.625 57.6562C79.2188 56.25 77.3438 55.7812 75 55.7812C72.1875 55.7812 70.3125 56.25 69.375 57.6562C67.9688 59.0625 67.0312 60.9375 66.0938 63.2812C65.1562 66.0938 63.75 67.5 61.4062 67.5C60 67.5 59.0625 67.0312 58.125 66.0938C57.6562 65.1562 57.1875 63.75 57.1875 62.8125ZM74.5312 102.188C73.125 102.188 71.7188 101.719 70.7812 100.781C69.8438 99.8438 69.375 98.4375 69.375 97.0312C69.375 95.625 69.8438 94.2188 70.7812 93.2812C71.7188 92.3438 73.125 91.875 74.5312 91.875C75.9375 91.875 77.3438 92.3438 78.2812 93.2812C79.2188 94.2188 79.6875 95.625 79.6875 97.0312C79.6875 98.9062 79.2188 99.8438 78.2812 100.781C77.3438 101.719 75.9375 102.188 74.5312 102.188Z" fill="#212529" fill-rule="evenodd"/>

</svg>