<svg width="32" height="32" viewBox="0 0 32 32" fill="none" xmlns="http://www.w3.org/2000/svg">
<path d="M12.5174 11.7881L7 17.2881L12.5259 22.7797L18.0518 17.2881L12.5174 11.7881V11.7881ZM9.40961 17.2881L12.5259 14.1864L15.6337 17.2881L12.5174 20.3898L9.40961 17.2881V17.2881ZM22.7518 11.9831C22.0423 11.2727 21.1985 10.7093 20.2691 10.3253C19.3396 9.94129 18.343 9.74433 17.3366 9.74576V7L13.7265 10.5932L17.3366 14.1864V11.4407C18.8607 11.4407 20.3848 12.0169 21.5513 13.178C22.6677 14.2913 23.2947 15.7999 23.2947 17.3729C23.2947 18.9458 22.6677 20.4545 21.5513 21.5678C20.7007 22.417 19.6106 22.9885 18.4259 23.2065C17.2412 23.4245 16.0179 23.2786 14.9185 22.7881L13.6498 24.0508C14.7993 24.678 16.068 25 17.3366 25C19.295 25 21.2618 24.2542 22.7518 22.7627C23.4644 22.0557 24.0298 21.2157 24.4156 20.2908C24.8014 19.3659 25 18.3743 25 17.3729C25 16.3714 24.8014 15.3799 24.4156 14.455C24.0298 13.5301 23.4644 12.69 22.7518 11.9831V11.9831Z" fill="#212529"/>
</svg>
