<svg width="32" height="32" viewBox="0 0 32 32" fill="none" xmlns="http://www.w3.org/2000/svg">
<path d="M22.3636 12.75L18.7273 16.5H21.4545C21.4545 19.6031 19.0091 22.125 16 22.125C15.0818 22.125 14.2091 21.8906 13.4545 21.4687L12.1273 22.8375C13.2455 23.5688 14.5727 24 16 24C20.0182 24 23.2727 20.6438 23.2727 16.5H26L22.3636 12.75ZM10.5455 16.5C10.5455 13.3969 12.9909 10.875 16 10.875C16.9182 10.875 17.7909 11.1094 18.5455 11.5312L19.8727 10.1625C18.7545 9.43125 17.4273 9 16 9C11.9818 9 8.72727 12.3562 8.72727 16.5H6L9.63636 20.25L13.2727 16.5H10.5455Z" fill="#212529"/>
</svg>
