<svg width="32" height="32" viewBox="0 0 32 32" fill="none" xmlns="http://www.w3.org/2000/svg">
<path d="M7 17.2854C6.99991 18.6642 7.36937 20.0178 8.06991 21.2053C8.77045 22.3929 9.77648 23.3709 10.9833 24.0378C12.1901 24.7046 13.5536 25.0358 14.9318 24.9969C16.3101 24.9581 17.6527 24.5505 18.82 23.8167L17.5686 22.5653C16.72 23.0196 15.7429 23.2853 14.7143 23.2853C11.4057 23.2853 8.71429 20.5939 8.71429 17.2854C8.71429 13.977 11.4057 11.2856 14.7143 11.2856H14.86L13.5057 12.6484L14.7143 13.857L18.1429 10.4285L14.7143 7L13.4971 8.20854L14.86 9.57136H14.7143C12.6683 9.57136 10.7062 10.3841 9.25946 11.8308C7.81275 13.2774 7 15.2395 7 17.2854V17.2854ZM14.7143 17.2854L19.8571 22.4282L25 17.2854L19.8571 12.1427L14.7143 17.2854ZM19.8571 20.0025L17.14 17.2854L19.8571 14.5684L22.5743 17.2854L19.8571 20.0025Z" fill="#212529"/>
</svg>
