<svg width="24" height="24" viewBox="0 0 24 24" fill="none" xmlns="http://www.w3.org/2000/svg">
<rect x="0.5" y="0.5" width="23" height="23" fill="white"/>
<path fill-rule="evenodd" clip-rule="evenodd" d="M5 4.25H4.25V5V19V19.75H5H19H19.75V19V12H18.25V18.25H5.75V5.75H11.5625V4.25H5ZM10 14.2569H15.4C15.7314 14.2569 16 13.9882 16 13.6569C16 13.3255 15.7314 13.0569 15.4 13.0569H11.4485L16.0811 8.42426L16.5054 8L15.6569 7.15147L15.2326 7.57574L10.6 12.2083L10.6 8.25685C10.6 7.92548 10.3314 7.65685 10 7.65685C9.66864 7.65685 9.40001 7.92548 9.40001 8.25685L9.40001 13.6569C9.40001 13.9882 9.66864 14.2569 10 14.2569Z" fill="#212529"/>
<rect x="0.5" y="0.5" width="23" height="23" stroke="#E4E8ED"/>
</svg>
