<svg width="32" height="32" viewBox="0 0 32 32" fill="none" xmlns="http://www.w3.org/2000/svg">
<path fill-rule="evenodd" clip-rule="evenodd" d="M8.39621 8.39633C8.6327 8.15983 8.98848 8.08933 9.29729 8.21776L23.3367 14.0565C23.6537 14.1883 23.856 14.5025 23.845 14.8456C23.8339 15.1887 23.6118 15.4892 23.287 15.6004L17.5432 17.5666L15.6009 23.2853C15.4904 23.6107 15.1899 23.8336 14.8464 23.8451C14.503 23.8565 14.1883 23.6541 14.0564 23.3368L8.21764 9.29741C8.08921 8.9886 8.15971 8.63282 8.39621 8.39633ZM10.5114 10.5115L14.7409 20.6815L16.1098 16.6511C16.1921 16.4087 16.3822 16.2182 16.6243 16.1353L20.6886 14.7441L10.5114 10.5115Z" fill="#212529"/>
</svg>
