<svg width="24" height="24" viewBox="0 0 24 24" fill="none" xmlns="http://www.w3.org/2000/svg">
<path fill-rule="evenodd" clip-rule="evenodd" d="M3.99976 10.897C3.99976 14.7169 7.07688 17.794 10.8968 17.794C12.6153 17.794 14.1834 17.1712 15.3887 16.1382L20.0479 20.7973L20.798 20.0472L16.1388 15.3879C17.1713 14.1828 17.7938 12.615 17.7938 10.897C17.7938 7.07712 14.7166 4 10.8968 4C7.07688 4 3.99976 7.07712 3.99976 10.897ZM5.06083 10.897C5.06083 7.66072 7.66047 5.06108 10.8968 5.06108C14.133 5.06108 16.7327 7.66072 16.7327 10.897C16.7327 14.1333 14.133 16.7329 10.8968 16.7329C7.66047 16.7329 5.06083 14.1333 5.06083 10.897Z" fill="#B0B8C2"/>
</svg>
