<svg width="24" height="24" viewBox="0 0 24 24" fill="none" xmlns="http://www.w3.org/2000/svg">
<path d="M9.33333 4.71429V3H14.6667V4.71429H9.33333ZM11.1111 14.1429H12.8889V9H11.1111V14.1429ZM12 21C10.9037 21 9.87022 20.7966 8.89956 20.3897C7.92948 19.9823 7.08148 19.4286 6.35556 18.7286C5.62963 18.0286 5.05541 17.2109 4.63289 16.2754C4.21096 15.3394 4 14.3429 4 13.2857C4 12.2286 4.21096 11.232 4.63289 10.296C5.05541 9.36057 5.62963 8.54286 6.35556 7.84286C7.08148 7.14286 7.92948 6.58943 8.89956 6.18257C9.87022 5.77514 10.9037 5.57143 12 5.57143C12.9185 5.57143 13.8 5.71429 14.6444 6C15.4889 6.28571 16.2815 6.7 17.0222 7.24286L18.2667 6.04286L19.5111 7.24286L18.2667 8.44286C18.8296 9.15714 19.2593 9.92143 19.5556 10.7357C19.8519 11.55 20 12.4 20 13.2857C20 14.3429 19.789 15.3394 19.3671 16.2754C18.9446 17.2109 18.3704 18.0286 17.6444 18.7286C16.9185 19.4286 16.0705 19.9823 15.1004 20.3897C14.1298 20.7966 13.0963 21 12 21Z" fill="white"/>
</svg>
