<?xml version="1.0" encoding="utf-8"?>
<!-- Generator: Adobe Illustrator 26.4.1, SVG Export Plug-In . SVG Version: 6.00 Build 0)  -->
<svg version="1.1" id="Layer_1" xmlns="http://www.w3.org/2000/svg" xmlns:xlink="http://www.w3.org/1999/xlink" x="0px" y="0px"
	 width="32px" height="32px" viewBox="0 0 32 32" style="enable-background:new 0 0 32 32;" xml:space="preserve">
<style type="text/css">
	.st0{fill:#212529;}
</style>
<path class="st0" d="M19.5,25h-7.1c-0.6,0-1.3-0.2-1.7-0.7c-0.5-0.4-0.8-1-0.9-1.6L8.7,12.2H8c-0.6,0-1-0.4-1-1s0.4-1,1-1h2.6
	l0.8-1.7h0c0.2-0.4,0.5-0.8,1-1.1C12.7,7.1,13.2,7,13.7,7h4.6c0.5,0,1,0.1,1.4,0.4c0.4,0.3,0.8,0.6,1,1.1l0.8,1.7H24
	c0.6,0,1,0.4,1,1s-0.4,1-1,1h-0.7l-1.2,10.5c-0.1,0.6-0.4,1.2-0.8,1.6C20.8,24.8,20.2,25,19.5,25z M10.7,12.2l1.1,10.3
	c0,0.1,0.1,0.3,0.2,0.4c0.1,0.1,0.3,0.2,0.4,0.2h7.1c0.1,0,0.3-0.1,0.4-0.2c0.1-0.1,0.2-0.2,0.2-0.4l1.1-10.3H10.7z M12.8,10.2h6.4
	l-0.4-0.9c0-0.1-0.1-0.2-0.2-0.3S18.4,9,18.3,9h-4.6c-0.1,0-0.2,0-0.3,0.1c-0.1,0.1-0.2,0.1-0.2,0.2L12.8,10.2z M17.6,20.2
	c-0.6,0-1-0.4-1-1v-4c0-0.6,0.4-1,1-1s1,0.4,1,1v4C18.6,19.8,18.2,20.2,17.6,20.2z M14.4,20.2c-0.6,0-1-0.4-1-1v-4c0-0.6,0.4-1,1-1
	s1,0.4,1,1v4C15.4,19.8,15,20.2,14.4,20.2z"/>
</svg>
