<?xml version="1.0" encoding="utf-8"?>
<!-- Generator: Adobe Illustrator 27.3.1, SVG Export Plug-In . SVG Version: 6.00 Build 0)  -->
<svg version="1.1" xmlns="http://www.w3.org/2000/svg" xmlns:xlink="http://www.w3.org/1999/xlink" x="0px" y="0px"
	 viewBox="0 0 32 32" style="enable-background:new 0 0 32 32;" xml:space="preserve">
<style type="text/css">
	.st0{display:none;}
	.st1{display:inline;fill:#FFC737;}
	.st2{display:inline;}
	.st3{fill:none;stroke:#212529;stroke-width:2;stroke-linecap:round;stroke-linejoin:round;}
	.st4{display:inline;fill:#212529;}
	.st5{font-family:'ArialRoundedMTBold';}
	.st6{font-size:11px;}
	.st7{fill:#FFC737;}
	.st8{fill:#212529;}
	.st9{font-size:9px;}
	.st10{fill:#FF7F00;}
	.st11{font-size:9.7113px;}
	.st12{display:inline;fill:none;stroke:#212529;stroke-miterlimit:10;}
	.st13{display:inline;fill:none;stroke:#212529;stroke-width:2;stroke-linecap:round;stroke-miterlimit:10;}
	.st14{display:inline;fill:none;stroke:#212529;stroke-linecap:round;stroke-miterlimit:10;}
</style>
<g id="Layer_1" class="st0">
	<rect class="st1" width="32" height="32"/>
	<g class="st2">
		<g>
			<path class="st3" d="M24.8,7.2C20,2.3,12,2.3,7.2,7.2C3.8,10.5,2.8,15.3,4,19.5"/>
			<polyline class="st3" points="19,8.3 24.8,7.2 23.7,1.3 			"/>
		</g>
		<g>
			<path class="st3" d="M7.2,24.8c4.9,4.9,12.8,4.9,17.7,0c3.3-3.3,4.4-8.1,3.2-12.3"/>
			<polyline class="st3" points="13,23.7 7.2,24.8 8.3,30.7 			"/>
		</g>
	</g>
	<text transform="matrix(1 0 0 1 5.8986 20.5202)" class="st4 st5 st6">WSI</text>
</g>
<g id="Layer_1_copy_6">
	<rect class="st7" width="32" height="32"/>
	<g>
		<g>
			<path class="st3" d="M23.4,8.6c-4.1-4.1-10.7-4.1-14.8,0C5.8,11.4,4.9,15.4,5.9,19"/>
			<polyline class="st3" points="18.5,9.5 23.4,8.6 22.5,3.6 			"/>
		</g>
		<g>
			<path class="st3" d="M8.6,23.4c4.1,4.1,10.7,4.1,14.8,0c2.8-2.8,3.7-6.8,2.7-10.3"/>
			<polyline class="st3" points="13.5,22.5 8.6,23.4 9.5,28.4 			"/>
		</g>
	</g>
	<g>
		<path class="st8" d="M13.4,18.1l-1-3.7l-1,3.7c-0.1,0.3-0.1,0.5-0.2,0.6c0,0.1-0.1,0.2-0.2,0.3c-0.1,0.1-0.3,0.1-0.5,0.1
			c-0.2,0-0.3,0-0.4-0.1C10,19.1,9.9,19,9.9,18.9c-0.1-0.1-0.1-0.2-0.2-0.4c0-0.1-0.1-0.3-0.1-0.4l-1-4.2c-0.1-0.2-0.1-0.4-0.1-0.6
			c0-0.2,0.1-0.3,0.2-0.4s0.3-0.2,0.4-0.2c0.2,0,0.4,0.1,0.5,0.2s0.1,0.4,0.2,0.6l0.8,3.6l0.9-3.4c0.1-0.3,0.1-0.5,0.2-0.6
			c0.1-0.1,0.1-0.3,0.3-0.3s0.3-0.1,0.5-0.1c0.2,0,0.4,0.1,0.5,0.2c0.1,0.1,0.2,0.2,0.2,0.3c0,0.1,0.1,0.3,0.2,0.6l0.9,3.4l0.8-3.6
			c0-0.2,0.1-0.3,0.1-0.4c0-0.1,0.1-0.2,0.2-0.3s0.2-0.1,0.4-0.1c0.2,0,0.3,0.1,0.4,0.2c0.1,0.1,0.2,0.2,0.2,0.4
			c0,0.1,0,0.3-0.1,0.6l-1,4.2c-0.1,0.3-0.1,0.5-0.2,0.6c0,0.1-0.1,0.2-0.2,0.3c-0.1,0.1-0.3,0.1-0.5,0.1c-0.2,0-0.3,0-0.5-0.1
			c-0.1-0.1-0.2-0.2-0.2-0.3C13.5,18.6,13.5,18.4,13.4,18.1z"/>
		<path class="st8" d="M21.5,17.2c0,0.4-0.1,0.7-0.3,1c-0.2,0.3-0.5,0.5-0.8,0.7c-0.4,0.2-0.8,0.3-1.3,0.3c-0.6,0-1.1-0.1-1.5-0.3
			c-0.3-0.2-0.5-0.4-0.7-0.7s-0.3-0.5-0.3-0.8c0-0.2,0.1-0.3,0.2-0.4c0.1-0.1,0.2-0.2,0.4-0.2c0.1,0,0.2,0,0.3,0.1
			c0.1,0.1,0.2,0.2,0.2,0.4c0.1,0.2,0.2,0.4,0.3,0.5c0.1,0.1,0.2,0.2,0.4,0.3c0.2,0.1,0.4,0.1,0.7,0.1c0.4,0,0.7-0.1,0.9-0.3
			c0.2-0.2,0.3-0.4,0.3-0.6c0-0.2-0.1-0.4-0.2-0.5c-0.1-0.1-0.3-0.2-0.5-0.3c-0.2-0.1-0.5-0.1-0.8-0.2c-0.4-0.1-0.8-0.2-1.1-0.4
			c-0.3-0.1-0.5-0.3-0.7-0.6c-0.2-0.2-0.3-0.5-0.3-0.9c0-0.3,0.1-0.6,0.3-0.9c0.2-0.3,0.5-0.5,0.8-0.6c0.4-0.1,0.8-0.2,1.2-0.2
			c0.4,0,0.7,0,1,0.1c0.3,0.1,0.5,0.2,0.7,0.4c0.2,0.2,0.3,0.3,0.4,0.5c0.1,0.2,0.1,0.3,0.1,0.5c0,0.1-0.1,0.3-0.2,0.4
			c-0.1,0.1-0.2,0.2-0.4,0.2c-0.1,0-0.3,0-0.3-0.1c-0.1-0.1-0.2-0.2-0.2-0.4c-0.1-0.2-0.2-0.4-0.4-0.5c-0.2-0.1-0.4-0.2-0.8-0.2
			c-0.3,0-0.6,0.1-0.8,0.2c-0.2,0.1-0.3,0.3-0.3,0.5c0,0.1,0,0.2,0.1,0.3c0.1,0.1,0.2,0.2,0.3,0.2c0.1,0.1,0.2,0.1,0.4,0.2
			c0.1,0,0.3,0.1,0.6,0.2c0.3,0.1,0.7,0.2,0.9,0.3c0.3,0.1,0.5,0.2,0.7,0.4c0.2,0.1,0.4,0.3,0.5,0.5C21.4,16.7,21.5,16.9,21.5,17.2z
			"/>
		<path class="st8" d="M22.2,18.4v-4.9c0-0.3,0.1-0.4,0.2-0.6c0.1-0.1,0.3-0.2,0.4-0.2c0.2,0,0.3,0.1,0.5,0.2
			c0.1,0.1,0.2,0.3,0.2,0.6v4.9c0,0.3-0.1,0.4-0.2,0.6s-0.3,0.2-0.5,0.2c-0.2,0-0.3-0.1-0.4-0.2C22.3,18.9,22.2,18.7,22.2,18.4z"/>
	</g>
</g>
<g id="Layer_1_copy" class="st0">
	<rect class="st1" width="32" height="32"/>
	<g class="st2">
		<g>
			<path class="st3" d="M23.4,8.6c-4.1-4.1-10.7-4.1-14.8,0C5.8,11.4,4.9,15.4,5.9,19"/>
			<polyline class="st3" points="18.5,9.5 23.4,8.6 22.5,3.6 			"/>
		</g>
		<g>
			<path class="st3" d="M8.6,23.4c4.1,4.1,10.7,4.1,14.8,0c2.8-2.8,3.7-6.8,2.7-10.3"/>
			<polyline class="st3" points="13.5,22.5 8.6,23.4 9.5,28.4 			"/>
		</g>
	</g>
	<g class="st2">
		<path class="st8" d="M12,13.6v3.2c0,0.3,0,0.5,0,0.7c0,0.2-0.1,0.4-0.2,0.6c-0.1,0.3-0.4,0.6-0.7,0.8c-0.3,0.2-0.7,0.3-1.2,0.3
			c-0.4,0-0.8-0.1-1-0.2c-0.3-0.1-0.5-0.3-0.7-0.6C8.1,18.2,8,18,8,17.8c-0.1-0.2-0.1-0.4-0.1-0.6c0-0.2,0.1-0.3,0.2-0.5
			c0.1-0.1,0.3-0.2,0.4-0.2c0.2,0,0.3,0,0.4,0.1C9,16.9,9,17,9.1,17.2c0,0.2,0.1,0.4,0.1,0.5c0,0.1,0.1,0.2,0.2,0.3s0.3,0.1,0.5,0.1
			c0.6,0,0.8-0.4,0.8-1.2v-3.4c0-0.3,0.1-0.4,0.2-0.6c0.1-0.1,0.3-0.2,0.5-0.2c0.2,0,0.3,0.1,0.5,0.2C12,13.1,12,13.3,12,13.6z"/>
		<path class="st8" d="M15.4,16.7h-1.1v1.7c0,0.3-0.1,0.4-0.2,0.6c-0.1,0.1-0.3,0.2-0.4,0.2c-0.2,0-0.3-0.1-0.5-0.2
			c-0.1-0.1-0.2-0.3-0.2-0.6v-4.8c0-0.3,0.1-0.5,0.2-0.6c0.1-0.1,0.3-0.2,0.6-0.2h1.6c0.5,0,0.8,0,1.1,0.1c0.3,0.1,0.5,0.2,0.7,0.4
			c0.2,0.2,0.3,0.4,0.4,0.6c0.1,0.2,0.1,0.5,0.1,0.8c0,0.6-0.2,1.1-0.6,1.4C16.8,16.5,16.2,16.7,15.4,16.7z M15.1,13.8h-0.8v1.9h0.8
			c0.3,0,0.5,0,0.7-0.1c0.2-0.1,0.3-0.2,0.5-0.3c0.1-0.1,0.2-0.3,0.2-0.6c0-0.3-0.1-0.5-0.2-0.7C16,13.9,15.7,13.8,15.1,13.8z"/>
		<path class="st8" d="M24.1,16.6v1.2c0,0.2,0,0.3,0,0.4c0,0.1-0.1,0.2-0.2,0.3c-0.1,0.1-0.2,0.1-0.3,0.2c-0.4,0.2-0.7,0.3-1.1,0.4
			c-0.3,0.1-0.7,0.1-1.1,0.1c-0.5,0-0.9-0.1-1.3-0.2c-0.4-0.1-0.7-0.4-1-0.6c-0.3-0.3-0.5-0.6-0.6-1c-0.1-0.4-0.2-0.8-0.2-1.3
			c0-0.5,0.1-0.9,0.2-1.3c0.1-0.4,0.4-0.7,0.6-1c0.3-0.3,0.6-0.5,1-0.6c0.4-0.1,0.9-0.2,1.4-0.2c0.4,0,0.8,0.1,1.1,0.2
			c0.3,0.1,0.6,0.3,0.8,0.4c0.2,0.2,0.3,0.3,0.5,0.5c0.1,0.2,0.2,0.4,0.2,0.5c0,0.2-0.1,0.3-0.2,0.4c-0.1,0.1-0.3,0.2-0.4,0.2
			c-0.1,0-0.2,0-0.3-0.1c-0.1,0-0.2-0.1-0.2-0.2c-0.2-0.2-0.3-0.4-0.4-0.5c-0.1-0.1-0.3-0.2-0.4-0.3c-0.2-0.1-0.4-0.1-0.7-0.1
			c-0.3,0-0.5,0-0.8,0.1c-0.2,0.1-0.4,0.2-0.6,0.4c-0.2,0.2-0.3,0.4-0.4,0.7c-0.1,0.3-0.1,0.6-0.1,0.9c0,0.7,0.2,1.3,0.5,1.7
			c0.3,0.4,0.8,0.6,1.4,0.6c0.3,0,0.6,0,0.8-0.1c0.3-0.1,0.5-0.2,0.8-0.3v-1h-1c-0.2,0-0.4,0-0.5-0.1c-0.1-0.1-0.2-0.2-0.2-0.4
			c0-0.1,0-0.3,0.1-0.3c0.1-0.1,0.2-0.1,0.4-0.1h1.4c0.2,0,0.3,0,0.4,0c0.1,0,0.2,0.1,0.3,0.2C24,16.2,24.1,16.4,24.1,16.6z"/>
	</g>
</g>
<g id="Layer_1_copy_3" class="st0">
	<g class="st2">
		<g>
			<path class="st3" d="M24.8,7.2C20,2.3,12,2.3,7.2,7.2C3.8,10.5,2.8,15.3,4,19.5"/>
			<polyline class="st3" points="19,8.3 24.8,7.2 23.7,1.3 			"/>
		</g>
		<g>
			<path class="st3" d="M7.2,24.8c4.9,4.9,12.8,4.9,17.7,0c3.3-3.3,4.4-8.1,3.2-12.3"/>
			<polyline class="st3" points="13,23.7 7.2,24.8 8.3,30.7 			"/>
		</g>
	</g>
	<text transform="matrix(1 0 0 1 6.1113 19.592)" class="st4 st5 st6">WSI</text>
</g>
<g id="Layer_1_copy_2" class="st0">
	<rect class="st7" width="32" height="32"/>
	<g class="st2">
		<g>
			<g>
				<path class="st8" d="M10.5,5.5c4.2,0,7.4,3.1,7.4,7.2c0,3.6-2.3,7.2-7.4,7.2c-0.7,0-1.3-0.1-2-0.2c-0.3-0.1-0.6-0.1-0.9-0.1
					c-0.5,0-1,0.1-1.4,0.3c-0.1-0.7-0.4-1.4-1-1.8c-1.5-1.3-2.2-3.1-2.2-5.3C3.1,8.7,6.4,5.5,10.5,5.5 M10.5,3.5
					c-5.2,0-9.4,4-9.4,9.2c0,2.8,1.1,5.1,2.9,6.8c0.2,0.2,0.3,0.5,0.3,0.8v1.5c0,0.4,0.4,0.8,0.8,0.8c0.1,0,0.2,0,0.3-0.1L7,21.7
					c0.2-0.1,0.4-0.1,0.7-0.1c0.1,0,0.3,0,0.4,0c0.8,0.2,1.6,0.3,2.4,0.3c5.9,0,9.4-4.1,9.4-9.2C20,7.4,15.7,3.5,10.5,3.5L10.5,3.5z
					"/>
			</g>
		</g>
		<text transform="matrix(1 0 0 1 4.0533 15.1979)" class="st8 st5 st9">w</text>
		<g>
			<path class="st10" d="M19.6,5.8c6.2,0,11.3,4.7,11.3,11c0,3.4-1.3,6.2-3.5,8.1c-0.3,0.2-0.4,0.6-0.4,0.9v1.8
				c0,0.7-0.7,1.1-1.3,0.8l-1.9-0.9c-0.4-0.2-0.8-0.2-1.3-0.1c-0.9,0.2-1.9,0.3-2.9,0.3c-7.1,0-11.3-4.9-11.3-11
				C8.3,10.4,13.4,5.8,19.6,5.8z"/>
		</g>
		<text transform="matrix(1 0 0 1 10.1191 20.2637)" class="st8 st5 st11">JPG</text>
	</g>
</g>
<g id="Layer_1_copy_4" class="st0">
	<rect class="st7" width="32" height="32"/>
	<g class="st2">
		<g>
			<g>
				<path class="st8" d="M10.5,5.5c4.2,0,7.4,3.1,7.4,7.2c0,3.6-2.3,7.2-7.4,7.2c-0.7,0-1.3-0.1-2-0.2c-0.3-0.1-0.6-0.1-0.9-0.1
					c-0.5,0-1,0.1-1.4,0.3c-0.1-0.7-0.4-1.4-1-1.8c-1.5-1.3-2.2-3.1-2.2-5.3C3.1,8.7,6.4,5.5,10.5,5.5 M10.5,3.5
					c-5.2,0-9.4,4-9.4,9.2c0,2.8,1.1,5.1,2.9,6.8c0.2,0.2,0.3,0.5,0.3,0.8v1.5c0,0.4,0.4,0.8,0.8,0.8c0.1,0,0.2,0,0.3-0.1L7,21.7
					c0.2-0.1,0.4-0.1,0.7-0.1c0.1,0,0.3,0,0.4,0c0.8,0.2,1.6,0.3,2.4,0.3c5.9,0,9.4-4.1,9.4-9.2C20,7.4,15.7,3.5,10.5,3.5L10.5,3.5z
					"/>
			</g>
		</g>
		<text transform="matrix(1 0 0 1 4.0533 15.1979)" class="st8 st5 st9">J</text>
		<g>
			<path class="st10" d="M19.6,5.8c6.2,0,11.3,4.7,11.3,11c0,3.4-1.3,6.2-3.5,8.1c-0.3,0.2-0.4,0.6-0.4,0.9v1.8
				c0,0.7-0.7,1.1-1.3,0.8l-1.9-0.9c-0.4-0.2-0.8-0.2-1.3-0.1c-0.9,0.2-1.9,0.3-2.9,0.3c-7.1,0-11.3-4.9-11.3-11
				C8.3,10.4,13.4,5.8,19.6,5.8z"/>
		</g>
		<text transform="matrix(1 0 0 1 10.1191 20.2637)" class="st8 st5 st11">WSI</text>
	</g>
</g>
<g id="Layer_1_copy_5" class="st0">
	<rect class="st1" width="32" height="32"/>
	<g class="st2">
		<path class="st8" d="M12.9,25.7l-1.2-4.4l-1.2,4.4c-0.1,0.3-0.2,0.6-0.2,0.7c-0.1,0.1-0.2,0.3-0.3,0.4C9.8,26.9,9.6,27,9.4,27
			c-0.2,0-0.3,0-0.5-0.1c-0.1-0.1-0.2-0.2-0.3-0.3c-0.1-0.1-0.1-0.3-0.2-0.5c0-0.2-0.1-0.3-0.1-0.5l-1.2-5C7,20.4,7,20.2,7,20
			c0-0.2,0.1-0.4,0.2-0.5c0.1-0.1,0.3-0.2,0.5-0.2c0.3,0,0.5,0.1,0.6,0.3c0.1,0.2,0.2,0.4,0.2,0.8l1,4.3l1.1-4.1
			c0.1-0.3,0.2-0.5,0.2-0.7c0.1-0.2,0.2-0.3,0.3-0.4c0.1-0.1,0.3-0.2,0.6-0.2c0.3,0,0.4,0.1,0.6,0.2c0.1,0.1,0.2,0.3,0.3,0.4
			c0.1,0.1,0.1,0.4,0.2,0.7l1.1,4.1l1-4.3c0-0.2,0.1-0.4,0.1-0.5c0-0.1,0.1-0.2,0.2-0.3c0.1-0.1,0.3-0.2,0.4-0.2
			c0.2,0,0.4,0.1,0.5,0.2c0.1,0.1,0.2,0.3,0.2,0.5c0,0.1,0,0.4-0.1,0.7l-1.2,5c-0.1,0.3-0.2,0.6-0.2,0.7c-0.1,0.2-0.2,0.3-0.3,0.4
			C14.4,26.9,14.2,27,14,27c-0.2,0-0.4-0.1-0.6-0.2c-0.1-0.1-0.2-0.2-0.3-0.4C13.1,26.3,13,26.1,12.9,25.7z"/>
		<path class="st8" d="M22.6,24.6c0,0.4-0.1,0.9-0.3,1.2c-0.2,0.4-0.6,0.6-1,0.8s-1,0.3-1.6,0.3c-0.7,0-1.3-0.1-1.8-0.4
			c-0.3-0.2-0.6-0.5-0.8-0.8c-0.2-0.3-0.3-0.7-0.3-1c0-0.2,0.1-0.3,0.2-0.5c0.1-0.1,0.3-0.2,0.5-0.2c0.2,0,0.3,0.1,0.4,0.2
			c0.1,0.1,0.2,0.3,0.3,0.5c0.1,0.2,0.2,0.4,0.3,0.6c0.1,0.2,0.3,0.3,0.5,0.4c0.2,0.1,0.5,0.2,0.8,0.2c0.4,0,0.8-0.1,1.1-0.3
			c0.3-0.2,0.4-0.5,0.4-0.8c0-0.2-0.1-0.4-0.2-0.6c-0.2-0.2-0.3-0.3-0.6-0.4c-0.2-0.1-0.6-0.2-1-0.3c-0.5-0.1-1-0.3-1.3-0.4
			c-0.4-0.2-0.6-0.4-0.9-0.7c-0.2-0.3-0.3-0.6-0.3-1.1c0-0.4,0.1-0.8,0.3-1.1s0.5-0.6,1-0.7c0.4-0.2,0.9-0.3,1.5-0.3
			c0.5,0,0.8,0.1,1.2,0.2c0.3,0.1,0.6,0.3,0.8,0.5c0.2,0.2,0.4,0.4,0.5,0.6c0.1,0.2,0.2,0.4,0.2,0.6c0,0.2-0.1,0.3-0.2,0.5
			c-0.1,0.1-0.3,0.2-0.5,0.2c-0.2,0-0.3,0-0.4-0.1c-0.1-0.1-0.2-0.2-0.3-0.4c-0.1-0.3-0.3-0.5-0.5-0.7c-0.2-0.2-0.5-0.2-0.9-0.2
			c-0.4,0-0.7,0.1-0.9,0.3c-0.2,0.2-0.4,0.4-0.4,0.6c0,0.1,0,0.3,0.1,0.4s0.2,0.2,0.3,0.3s0.3,0.1,0.4,0.2c0.1,0,0.4,0.1,0.7,0.2
			c0.4,0.1,0.8,0.2,1.1,0.3c0.3,0.1,0.6,0.3,0.9,0.4c0.2,0.2,0.4,0.4,0.6,0.6C22.5,24,22.6,24.3,22.6,24.6z"/>
		<path class="st8" d="M23.5,26.1v-5.8c0-0.3,0.1-0.5,0.2-0.7c0.1-0.2,0.3-0.2,0.5-0.2c0.2,0,0.4,0.1,0.5,0.2
			c0.1,0.2,0.2,0.4,0.2,0.7v5.8c0,0.3-0.1,0.5-0.2,0.7c-0.1,0.2-0.3,0.2-0.5,0.2c-0.2,0-0.4-0.1-0.5-0.2
			C23.6,26.6,23.5,26.4,23.5,26.1z"/>
	</g>
	<path class="st12" d="M9.8,6"/>
	<path class="st12" d="M8.2,3.1"/>
	<path class="st12" d="M2.3,8.3"/>
	<path class="st12" d="M8.2,12.8"/>
	<path class="st12" d="M22.2,11.1"/>
	<path class="st13" d="M19.2,7.8h-7c-0.2,0-0.3-0.1-0.3-0.3V6.6c0-0.5-0.3-0.9-0.7-1c-0.1-0.1-0.3-0.1-0.4-0.1
		c-0.3,0-0.6,0.1-0.8,0.4L6.3,9.6c-0.4,0.4-0.4,1.1,0,1.5l3.6,3.8c0.3,0.3,0.8,0.4,1.2,0.3c0.4-0.2,0.7-0.6,0.7-1.1v-0.9
		c0-0.2,0.1-0.3,0.3-0.3l8.5,0c0.6,0,1.1-0.5,1.1-1.1v-0.9c0-0.2,0.2-0.3,0.2-0.3c0,0,0.2-0.1,0.3,0.1l3.6,3.8
		c0.1,0.1,0.1,0.3,0,0.4l-2,2.2"/>
	<path class="st14" d="M20.5,5.5"/>
</g>
<g id="Layer_1_copy_7" class="st0">
	<rect class="st1" width="32" height="32"/>
	<path class="st12" d="M9.8,6"/>
	<path class="st12" d="M8.2,3.1"/>
	<path class="st12" d="M2.3,8.3"/>
	<path class="st12" d="M8.2,12.8"/>
	<path class="st12" d="M22.2,11.1"/>
	<path class="st13" d="M19.2,7.8h-7c-0.2,0-0.3-0.1-0.3-0.3V6.6c0-0.5-0.3-0.9-0.7-1c-0.1-0.1-0.3-0.1-0.4-0.1
		c-0.3,0-0.6,0.1-0.8,0.4L6.3,9.6c-0.4,0.4-0.4,1.1,0,1.5l3.6,3.8c0.3,0.3,0.8,0.4,1.2,0.3c0.4-0.2,0.7-0.6,0.7-1.1v-0.9
		c0-0.2,0.1-0.3,0.3-0.3l8.5,0c0.6,0,1.1-0.5,1.1-1.1v-0.9c0-0.2,0.2-0.3,0.2-0.3c0,0,0.2-0.1,0.3,0.1l3.6,3.8
		c0.1,0.1,0.1,0.3,0,0.4l-2,2.2"/>
	<path class="st14" d="M20.5,5.5"/>
	<g class="st2">
		<path class="st8" d="M11.2,20.2v3.9c0,0.3,0,0.6,0,0.9c0,0.2-0.1,0.5-0.2,0.7c-0.2,0.4-0.4,0.7-0.8,1C9.8,26.9,9.3,27,8.7,27
			c-0.5,0-0.9-0.1-1.3-0.2c-0.3-0.2-0.6-0.4-0.8-0.8c-0.1-0.2-0.2-0.4-0.3-0.7c-0.1-0.2-0.1-0.5-0.1-0.7c0-0.2,0.1-0.4,0.2-0.5
			C6.6,24,6.8,23.9,7,23.9c0.2,0,0.3,0.1,0.5,0.2c0.1,0.1,0.2,0.3,0.2,0.5c0.1,0.3,0.1,0.5,0.2,0.6s0.2,0.3,0.3,0.4
			c0.1,0.1,0.3,0.2,0.6,0.2c0.7,0,1-0.5,1-1.5v-4.1c0-0.3,0.1-0.5,0.2-0.7c0.1-0.2,0.3-0.2,0.5-0.2c0.2,0,0.4,0.1,0.6,0.2
			C11.1,19.7,11.2,19.9,11.2,20.2z"/>
		<path class="st8" d="M15.3,24h-1.4v2.1c0,0.3-0.1,0.5-0.2,0.7c-0.1,0.2-0.3,0.2-0.5,0.2c-0.2,0-0.4-0.1-0.5-0.2
			c-0.1-0.2-0.2-0.4-0.2-0.7v-5.7c0-0.3,0.1-0.6,0.2-0.7c0.2-0.1,0.4-0.2,0.7-0.2h1.9c0.6,0,1,0,1.3,0.1c0.3,0.1,0.6,0.2,0.8,0.4
			c0.2,0.2,0.4,0.4,0.5,0.7c0.1,0.3,0.2,0.6,0.2,1c0,0.8-0.2,1.3-0.7,1.7C16.9,23.8,16.2,24,15.3,24z M14.9,20.6h-1v2.3h1
			c0.4,0,0.6,0,0.9-0.1c0.2-0.1,0.4-0.2,0.5-0.4c0.1-0.2,0.2-0.4,0.2-0.7c0-0.3-0.1-0.6-0.3-0.8C16.1,20.7,15.6,20.6,14.9,20.6z"/>
		<path class="st8" d="M25.7,23.9v1.4c0,0.2,0,0.3-0.1,0.5c0,0.1-0.1,0.2-0.2,0.3c-0.1,0.1-0.2,0.2-0.4,0.3
			c-0.4,0.2-0.9,0.4-1.3,0.5c-0.4,0.1-0.9,0.2-1.4,0.2c-0.6,0-1.1-0.1-1.6-0.3c-0.5-0.2-0.9-0.4-1.2-0.8c-0.3-0.3-0.6-0.7-0.8-1.2
			c-0.2-0.5-0.3-1-0.3-1.6c0-0.6,0.1-1.1,0.3-1.6c0.2-0.5,0.4-0.9,0.8-1.2c0.3-0.3,0.7-0.6,1.2-0.8c0.5-0.2,1-0.3,1.6-0.3
			c0.5,0,0.9,0.1,1.3,0.2c0.4,0.1,0.7,0.3,0.9,0.5s0.4,0.4,0.5,0.6s0.2,0.4,0.2,0.6c0,0.2-0.1,0.4-0.2,0.5C25.1,21.9,25,22,24.8,22
			c-0.1,0-0.2,0-0.3-0.1c-0.1-0.1-0.2-0.1-0.3-0.2c-0.2-0.3-0.3-0.5-0.5-0.7c-0.1-0.1-0.3-0.3-0.5-0.4c-0.2-0.1-0.5-0.2-0.8-0.2
			c-0.3,0-0.7,0.1-0.9,0.2c-0.3,0.1-0.5,0.3-0.7,0.5c-0.2,0.2-0.3,0.5-0.4,0.8c-0.1,0.3-0.2,0.7-0.2,1.1c0,0.9,0.2,1.5,0.6,2
			c0.4,0.5,1,0.7,1.7,0.7c0.3,0,0.7,0,1-0.1c0.3-0.1,0.6-0.2,0.9-0.4v-1.2h-1.2c-0.3,0-0.5,0-0.6-0.1c-0.1-0.1-0.2-0.2-0.2-0.4
			c0-0.2,0.1-0.3,0.2-0.4C22.6,23,22.8,23,23,23h1.7c0.2,0,0.4,0,0.5,0.1c0.1,0,0.3,0.1,0.4,0.2C25.7,23.4,25.7,23.6,25.7,23.9z"/>
	</g>
</g>
<g id="Layer_7" class="st0">
	<rect y="0" class="st1" width="32" height="32"/>
	<g class="st2">
		<path class="st8" d="M10.5,19.4v4.9c0,0.4,0,0.8-0.1,1.1c0,0.3-0.1,0.6-0.2,0.9c-0.2,0.5-0.6,0.9-1,1.2c-0.5,0.3-1.1,0.4-1.8,0.4
			c-0.6,0-1.2-0.1-1.6-0.3c-0.4-0.2-0.8-0.5-1-1c-0.1-0.2-0.2-0.5-0.3-0.8c-0.1-0.3-0.1-0.6-0.1-0.9c0-0.3,0.1-0.5,0.2-0.7
			C4.8,24.1,5,24,5.2,24c0.2,0,0.4,0.1,0.6,0.2c0.1,0.1,0.2,0.4,0.3,0.7c0.1,0.3,0.1,0.6,0.2,0.8c0.1,0.2,0.2,0.4,0.4,0.5
			c0.2,0.1,0.4,0.2,0.7,0.2c0.8,0,1.3-0.6,1.3-1.8v-5.1c0-0.4,0.1-0.7,0.3-0.9c0.2-0.2,0.4-0.3,0.7-0.3c0.3,0,0.5,0.1,0.7,0.3
			C10.5,18.7,10.5,19,10.5,19.4z"/>
		<path class="st8" d="M15.7,24.1H14v2.6c0,0.4-0.1,0.7-0.3,0.9c-0.2,0.2-0.4,0.3-0.7,0.3c-0.3,0-0.5-0.1-0.7-0.3
			c-0.2-0.2-0.3-0.5-0.3-0.8v-7.2c0-0.4,0.1-0.7,0.3-0.9c0.2-0.2,0.5-0.3,0.9-0.3h2.4c0.7,0,1.3,0.1,1.7,0.2c0.4,0.1,0.7,0.3,1,0.5
			c0.3,0.2,0.5,0.5,0.6,0.9s0.2,0.8,0.2,1.2c0,0.9-0.3,1.7-0.9,2.2C17.7,23.9,16.8,24.1,15.7,24.1z M15.2,19.8H14v2.8h1.3
			c0.4,0,0.8,0,1.1-0.1c0.3-0.1,0.5-0.2,0.7-0.5c0.2-0.2,0.2-0.5,0.2-0.8c0-0.4-0.1-0.7-0.4-1C16.6,20,16.1,19.8,15.2,19.8z"/>
		<path class="st8" d="M28.7,23.9v1.8c0,0.2,0,0.4-0.1,0.6c0,0.1-0.1,0.3-0.3,0.4c-0.1,0.1-0.3,0.2-0.5,0.3
			c-0.6,0.3-1.1,0.5-1.6,0.7c-0.5,0.1-1.1,0.2-1.7,0.2c-0.7,0-1.4-0.1-2-0.3c-0.6-0.2-1.1-0.5-1.5-1c-0.4-0.4-0.7-0.9-1-1.5
			c-0.2-0.6-0.3-1.3-0.3-2c0-0.7,0.1-1.4,0.3-2c0.2-0.6,0.5-1.1,1-1.5c0.4-0.4,0.9-0.7,1.5-1c0.6-0.2,1.3-0.3,2-0.3
			c0.6,0,1.2,0.1,1.7,0.3c0.5,0.2,0.9,0.4,1.2,0.6c0.3,0.3,0.5,0.5,0.7,0.8s0.2,0.5,0.2,0.8c0,0.2-0.1,0.4-0.3,0.6
			c-0.2,0.2-0.4,0.3-0.6,0.3c-0.1,0-0.3,0-0.4-0.1c-0.1-0.1-0.2-0.2-0.3-0.3c-0.2-0.4-0.4-0.6-0.6-0.8c-0.2-0.2-0.4-0.3-0.7-0.5
			c-0.3-0.1-0.6-0.2-1-0.2c-0.4,0-0.8,0.1-1.2,0.2c-0.3,0.2-0.6,0.4-0.9,0.7c-0.2,0.3-0.4,0.6-0.6,1.1c-0.1,0.4-0.2,0.9-0.2,1.4
			c0,1.1,0.3,1.9,0.8,2.5c0.5,0.6,1.2,0.9,2.1,0.9c0.4,0,0.8-0.1,1.2-0.2c0.4-0.1,0.8-0.3,1.2-0.5v-1.5h-1.5c-0.4,0-0.6-0.1-0.8-0.2
			c-0.2-0.1-0.3-0.3-0.3-0.5c0-0.2,0.1-0.4,0.2-0.5c0.1-0.1,0.4-0.2,0.6-0.2h2.1c0.3,0,0.5,0,0.7,0.1c0.2,0,0.3,0.1,0.4,0.3
			C28.7,23.4,28.7,23.6,28.7,23.9z"/>
	</g>
	<path class="st12" d="M9.8,6"/>
	<path class="st12" d="M8.2,3.1"/>
	<path class="st12" d="M2.3,8.3"/>
	<path class="st12" d="M8.2,12.8"/>
	<path class="st12" d="M22.2,11.1"/>
	<path class="st13" d="M20,7h-8.7c-0.2,0-0.4-0.2-0.4-0.4V5.5c0-0.6-0.3-1.1-0.9-1.3C9.9,4.2,9.7,4.1,9.5,4.1c-0.4,0-0.7,0.2-1,0.4
		L4.1,9.3c-0.5,0.5-0.5,1.4,0,1.9l4.4,4.7c0.4,0.4,1,0.6,1.5,0.3c0.5-0.2,0.9-0.7,0.9-1.3v-1.1c0-0.2,0.2-0.4,0.4-0.4l10.6,0
		c0.8,0,1.4-0.6,1.4-1.4v-1.1c0-0.2,0.2-0.3,0.2-0.4c0.1,0,0.3-0.1,0.4,0.1l4.4,4.7c0.1,0.2,0.1,0.4,0,0.5l-2.5,2.7"/>
	<path class="st14" d="M20.5,5.5"/>
</g>
</svg>
